<svg viewBox="0 0 630 876" xmlns="http://www.w3.org/2000/svg" fill-rule="evenodd" clip-rule="evenodd">
  <g id="Ebene-1">
    <path d="M233.931,463.949l0,-48.275l100.801,0l0,11.123l62.703,0l0,37.152l-163.504,0Z" fill="#82929a" fill-rule="nonzero" stroke="#1a1a18" stroke-width="0.6px"/>
    <path d="M247.709 429.844c-.636.156-1.343.336-2.482.336-2.231 0-4.81-1.127-4.81-4.293 0-2.916 2.039-4.366 4.797-4.366.852 0 1.68.192 2.483.43l-.18 1.813c-.72-.397-1.415-.589-2.183-.589-1.583 0-2.614 1.151-2.614 2.712 0 1.642 1.163 2.639 2.794 2.639.732 0 1.475-.194 2.087-.433l.108 1.75zM251.288 428.741c.815 0 1.331-.744 1.331-1.476-.276-.011-.588-.036-.912-.036-.731 0-1.307.229-1.307.828 0 .432.384.684.888.684m1.487 1.295c-.012-.336-.048-.659-.048-.983l-.024 0c-.492.779-1.091 1.126-1.979 1.126-1.235 0-2.339-.611-2.339-1.966 0-1.907 2.075-2.135 3.227-2.135.347 0 .731.036 1.007.084-.012-.852-.647-1.079-1.427-1.079-.696 0-1.391.132-1.991.468l-.036-1.463c.768-.313 1.571-.445 2.495-.445 1.595 0 2.974.684 2.974 2.591l0 2.326c0 .493.024.984.12 1.476l-1.979 0zM255.525 423.787l1.271 0 0-1.402 2.123-.661 0 2.063 1.511 0 0 1.512-1.511 0 0 2.302c0 .756.18 1.14.863 1.14.216 0 .444-.048.66-.084l.072 1.403c-.407.048-.816.12-1.355.12-1.931 0-2.399-.852-2.399-2.338l0-2.543-1.235 0 0-1.512zM264.067 428.741c.815 0 1.331-.744 1.331-1.476-.276-.011-.588-.036-.912-.036-.731 0-1.307.229-1.307.828 0 .432.384.684.888.684m1.487 1.295c-.012-.336-.048-.659-.048-.983l-.024 0c-.492.779-1.091 1.126-1.979 1.126-1.235 0-2.339-.611-2.339-1.966 0-1.907 2.075-2.135 3.227-2.135.347 0 .731.036 1.007.084-.012-.852-.647-1.079-1.427-1.079-.696 0-1.391.132-1.991.468l-.036-1.463c.768-.313 1.571-.445 2.495-.445 1.595 0 2.974.684 2.974 2.591l0 2.326c0 .493.024.984.12 1.476l-1.979 0zM268.736 428.308c.504.217 1.247.433 2.027.433.444 0 .875-.073.875-.504 0-1.056-3.07-.312-3.07-2.567 0-1.439 1.415-2.027 2.663-2.027.743 0 1.499.084 2.194.36l-.168 1.499c-.455-.276-1.139-.42-1.679-.42-.467 0-.995.084-.995.432 0 .972 3.214.204 3.214 2.578 0 1.668-1.499 2.087-2.914 2.087-.972 0-1.631-.096-2.267-.3l.12-1.571zM274.365 423.787l1.271 0 0-1.402 2.123-.661 0 2.063 1.511 0 0 1.512-1.511 0 0 2.302c0 .756.18 1.14.863 1.14.216 0 .444-.048.66-.084l.072 1.403c-.407.048-.816.12-1.355.12-1.931 0-2.399-.852-2.399-2.338l0-2.543-1.235 0 0-1.512zM285.042 426.918c-.001-.936-.409-1.763-1.404-1.763-.996 0-1.404.827-1.404 1.763 0 .924.408 1.751 1.404 1.751.995 0 1.403-.827 1.403-1.751m-5.038 0c0-2.075 1.572-3.274 3.635-3.274 2.063 0 3.633 1.199 3.633 3.274 0 2.063-1.57 3.262-3.633 3.262-2.063 0-3.635-1.199-3.635-3.262M293.831 425.142l.588 0c.72 0 1.631-.023 1.631-.972 0-.779-.78-.923-1.631-.923l-.588 0 0 1.895zm-2.23-3.478l3.981 0c1.487 0 2.699.671 2.699 2.111 0 1.115-.528 1.859-1.607 2.111l0 .024c.719.192.767.828 1.187 1.847l.816 2.279-2.327 0-.48-1.511c-.456-1.44-.744-1.8-1.571-1.8l-.468 0 0 3.311-2.23 0 0-8.372zM301.955 428.381l.864 0c1.667 0 2.602-.863 2.602-2.53 0-1.667-.971-2.531-2.602-2.531l-.864 0 0 5.061zm-2.23-6.716l3.045 0c2.915 0 4.954.911 4.954 4.15 0 3.129-2.099 4.221-4.954 4.221l-3.045 0 0-8.371zM311.231 425.526l.576 0c.767 0 1.379-.275 1.379-1.151 0-.852-.612-1.127-1.379-1.127l-.576 0 0 2.278zm-2.231-3.861l2.663 0c2.554 0 3.754.863 3.754 2.746 0 1.691-1.236 2.698-3.323 2.698l-.863 0 0 2.927-2.231 0 0-8.371zM318.623 425.526l.576 0c.768 0 1.379-.275 1.379-1.151 0-.852-.611-1.127-1.379-1.127l-.576 0 0 2.278zm-2.23-3.861l2.662 0c2.554 0 3.754.863 3.754 2.746 0 1.691-1.236 2.698-3.323 2.698l-.863 0 0 2.927-2.23 0 0-8.371zM241.832 438.371l.875 0c.972 0 2.087-.372 2.087-1.535 0-1.367-.971-1.451-2.11-1.451l-.852 0 0 2.986zm-.827-3.706l2.159 0c1.486 0 2.458.636 2.458 2.171 0 1.079-.828 1.799-1.859 1.931l0 .023c.672.084.816.444 1.08 1.008l1.426 3.238-.911 0-1.211-2.83c-.48-1.08-.839-1.116-1.631-1.116l-.684 0 0 3.946-.827 0 0-8.371zM251.539 439.546c0-1.067-.432-2.123-1.559-2.123-1.115 0-1.799 1.116-1.799 2.123l3.358 0zm.372 3.298c-.528.217-1.211.336-1.775.336-2.027 0-2.783-1.367-2.783-3.202 0-1.871 1.032-3.203 2.579-3.203 1.727 0 2.435 1.392 2.435 3.035l0 .383-4.186 0c0 1.296.695 2.339 2.015 2.339.551 0 1.355-.227 1.715-.456l0 .768zM253.581 442.148c.456.229 1.007.384 1.595.384.719 0 1.355-.396 1.355-1.091 0-1.451-2.938-1.224-2.938-2.999 0-1.211.983-1.667 1.99-1.667.325 0 .972.072 1.512.276l-.072.66c-.396-.18-.936-.289-1.356-.289-.779 0-1.318.241-1.318 1.02 0 1.14 3.01.996 3.01 2.999 0 1.295-1.212 1.738-2.135 1.738-.588 0-1.176-.071-1.715-.287l.072-.744zM261.595 437.567l-1.391 0 0 3.958c0 .551.204 1.007.815 1.007.288 0 .48-.06.696-.144l.048.623c-.18.073-.552.168-.923.168-1.344 0-1.392-.923-1.392-2.038l0-3.574-1.199 0 0-.647 1.199 0 0-1.476.756-.264 0 1.74 1.391 0 0 .647zM263.192 438.287c0-.672 0-.924-.048-1.367l.756 0 0 1.175.024 0c.276-.684.791-1.32 1.571-1.32.18 0 .396.036.528.073l0 .791c-.156-.048-.36-.072-.552-.072-1.199 0-1.523 1.343-1.523 2.447l0 3.022-.756 0 0-4.749zM267.428 436.92l.756 0 0 6.116-.756 0 0-6.116zm.756-1.632l-.756 0 0-1.007.756 0 0 1.007zM269.769 442.4l3.682-4.833-3.538 0 0-.647 4.414 0 0 .647-3.683 4.821 3.683 0 0 .648-4.558 0 0-.636zM275.9 436.92l.756 0 0 6.116-.756 0 0-6.116zm.756-1.632l-.756 0 0-1.007.756 0 0 1.007zM281.19 442.532c1.319 0 2.027-1.14 2.027-2.555 0-1.415-.708-2.554-2.027-2.554-1.319 0-2.027 1.139-2.027 2.554 0 1.415.708 2.555 2.027 2.555m0-5.757c1.979 0 2.854 1.535 2.854 3.202 0 1.667-.875 3.202-2.854 3.202-1.979 0-2.854-1.535-2.854-3.202 0-1.667.875-3.202 2.854-3.202M285.715 438.358c0-.468 0-.947-.048-1.438l.732 0 0 1.09.024 0c.251-.551.708-1.235 1.979-1.235 1.511 0 2.086 1.008 2.086 2.351l0 3.91-.755 0 0-3.718c0-1.151-.408-1.896-1.451-1.896-1.38 0-1.811 1.212-1.811 2.232l0 3.382-.756 0 0-4.678zM292.627 436.92l.756 0 0 6.116-.756 0 0-6.116zm.756-1.632l-.756 0 0-1.007.756 0 0 1.007zM300.671 442.532c1.343 0 1.811-1.439 1.811-2.555 0-1.115-.468-2.554-1.811-2.554-1.439 0-1.811 1.367-1.811 2.554 0 1.188.372 2.555 1.811 2.555m2.567.504l-.756 0 0-.972-.024 0c-.408.78-1.031 1.115-1.907 1.115-1.679 0-2.518-1.39-2.518-3.202 0-1.858.719-3.202 2.518-3.202 1.2 0 1.799.876 1.907 1.176l.024 0 0-3.91.756 0 0 8.995zM305.304 436.92l.756 0 0 6.116-.756 0 0-6.116zm.756-1.632l-.756 0 0-1.007.756 0 0 1.007zM313.348 442.532c1.343 0 1.811-1.439 1.811-2.555 0-1.115-.468-2.554-1.811-2.554-1.439 0-1.811 1.367-1.811 2.554 0 1.188.372 2.555 1.811 2.555m2.567.504l-.756 0 0-.972-.024 0c-.408.78-1.031 1.115-1.907 1.115-1.679 0-2.518-1.39-2.518-3.202 0-1.858.719-3.202 2.518-3.202 1.2 0 1.799.876 1.907 1.176l.024 0 0-3.91.756 0 0 8.995zM317.98 436.92l.756 0 0 6.116-.756 0 0-6.116zm.756-1.632l-.756 0 0-1.007.756 0 0 1.007zM320.885 438.287c0-.672 0-.924-.049-1.367l.756 0 0 1.175.024 0c.277-.684.792-1.32 1.572-1.32.179 0 .395.036.527.073l0 .791c-.156-.048-.359-.072-.552-.072-1.199 0-1.522 1.343-1.522 2.447l0 3.022-.756 0 0-4.749zM325.12 436.92l.756 0 0 6.116-.756 0 0-6.116zm.756-1.632l-.756 0 0-1.007.756 0 0 1.007zM330.662 437.567l-1.391 0 0 3.958c0 .551.204 1.007.816 1.007.288 0 .479-.06.696-.144l.047.623c-.18.073-.551.168-.923.168-1.343 0-1.391-.923-1.391-2.038l0-3.574-1.2 0 0-.647 1.2 0 0-1.476.755-.264 0 1.74 1.391 0 0 .647zM334.898 437.567l-1.391 0 0 3.958c0 .551.204 1.007.816 1.007.288 0 .479-.06.696-.144l.047.623c-.18.073-.551.168-.923.168-1.343 0-1.391-.923-1.391-2.038l0-3.574-1.2 0 0-.647 1.2 0 0-1.476.755-.264 0 1.74 1.391 0 0 .647zM338.883 442.532c1.319 0 2.027-1.14 2.027-2.555 0-1.415-.708-2.554-2.027-2.554-1.319 0-2.027 1.139-2.027 2.554 0 1.415.708 2.555 2.027 2.555m0-5.757c1.979 0 2.854 1.535 2.854 3.202 0 1.667-.875 3.202-2.854 3.202-1.979 0-2.854-1.535-2.854-3.202 0-1.667.875-3.202 2.854-3.202M348.764 437.423c-1.344 0-1.812 1.439-1.812 2.555 0 1.115.468 2.554 1.812 2.554 1.439 0 1.811-1.367 1.811-2.554 0-1.188-.372-2.555-1.811-2.555m-2.566-.503l.754 0-.047 1.115.023 0c.192-.336.66-1.259 1.955-1.259 1.799 0 2.52 1.343 2.52 3.202 0 1.811-.84 3.202-2.52 3.202-.959 0-1.535-.396-1.906-1.187l-.025 0 0 3.562-.754 0 0-8.635zM357.954 441.596c0 .468 0 .947.048 1.439l-.732 0 0-1.091-.024 0c-.252.551-.707 1.235-1.979 1.235-1.511 0-2.086-1.007-2.086-2.351l0-3.909.755 0 0 3.718c0 1.151.408 1.895 1.452 1.895 1.379 0 1.811-1.211 1.811-2.231l0-3.382.755 0 0 4.677zM362.588 437.423c-1.379 0-1.812 1.439-1.812 2.555 0 1.115.468 2.554 1.812 2.554 1.439 0 1.811-1.367 1.811-2.554 0-1.188-.372-2.555-1.811-2.555m-2.566-3.382l.754 0 0 3.91.025 0c.107-.299.707-1.175 1.906-1.175 1.799 0 2.52 1.343 2.52 3.202 0 1.811-.84 3.202-2.52 3.202-.875 0-1.498-.336-1.906-1.115l-.025 0 0 .971-.754 0 0-8.995zM369.5 437.423c-1.379 0-1.812 1.439-1.812 2.555 0 1.115.468 2.554 1.812 2.554 1.439 0 1.811-1.367 1.811-2.554 0-1.188-.372-2.555-1.811-2.555m-2.566-3.382l.754 0 0 3.91.025 0c.107-.299.707-1.175 1.906-1.175 1.799 0 2.52 1.343 2.52 3.202 0 1.811-.84 3.202-2.52 3.202-.875 0-1.498-.336-1.906-1.115l-.025 0 0 .971-.754 0 0-8.995z" fill="#fff" fill-rule="nonzero"/>
    <rect x="373.916" y="434.041" width="0.756" height="8.995" fill="#fff" fill-rule="nonzero"/>
    <path d="M376.82 436.92l.756 0 0 6.116-.756 0 0-6.116zm.756-1.632l-.756 0 0-1.007.756 0 0 1.007zM383.706 437.735c-.407-.181-.899-.312-1.308-.312-1.474 0-2.302 1.067-2.302 2.554 0 1.392.839 2.555 2.218 2.555.481 0 .924-.108 1.38-.276l.072.708c-.516.18-.996.215-1.571.215-1.967 0-2.926-1.499-2.926-3.202 0-1.883 1.211-3.202 3.022-3.202.731 0 1.26.168 1.475.24l-.06.72zM387.679 442.532c1.319 0 2.026-1.14 2.026-2.555 0-1.415-.707-2.554-2.026-2.554-1.319 0-2.026 1.139-2.026 2.554 0 1.415.707 2.555 2.026 2.555m0-5.757c1.979 0 2.854 1.535 2.854 3.202 0 1.667-.875 3.202-2.854 3.202-1.979 0-2.854-1.535-2.854-3.202 0-1.667.875-3.202 2.854-3.202M243.175 455.532c1.343 0 1.811-1.439 1.811-2.555 0-1.115-.468-2.554-1.811-2.554-1.439 0-1.811 1.367-1.811 2.554 0 1.188.372 2.555 1.811 2.555m2.567.504l-.756 0 0-.972-.024 0c-.408.78-1.031 1.115-1.907 1.115-1.679 0-2.518-1.39-2.518-3.202 0-1.858.719-3.202 2.518-3.202 1.2 0 1.799.876 1.907 1.176l.024 0 0-3.91.756 0 0 8.995zM251.539 452.546c0-1.067-.432-2.123-1.559-2.123-1.115 0-1.799 1.116-1.799 2.123l3.358 0zm.372 3.298c-.528.217-1.211.336-1.775.336-2.027 0-2.783-1.367-2.783-3.202 0-1.871 1.032-3.203 2.579-3.203 1.727 0 2.435 1.392 2.435 3.035l0 .383-4.186 0c0 1.296.695 2.339 2.015 2.339.551 0 1.355-.227 1.715-.456l0 .768z" fill="#fff" fill-rule="nonzero"/>
    <rect x="254.048" y="447.041" width="0.756" height="8.995" fill="#fff" fill-rule="nonzero"/>
    <rect x="256.952" y="447.041" width="0.756" height="8.995" fill="#fff" fill-rule="nonzero"/>
    <path d="M263.298 452.954l-.216 0c-1.307 0-2.867.132-2.867 1.475 0 .803.576 1.103 1.272 1.103 1.775 0 1.811-1.547 1.811-2.207l0-.371zm.072 2.099l-.024 0c-.336.731-1.188 1.127-1.943 1.127-1.739 0-2.015-1.175-2.015-1.727 0-2.051 2.183-2.146 3.766-2.146l.144 0 0-.313c0-1.043-.372-1.571-1.391-1.571-.636 0-1.235.144-1.799.504l0-.732c.467-.227 1.259-.42 1.799-.42 1.511 0 2.146.684 2.146 2.28l0 2.698c0 .491 0 .863.06 1.283l-.743 0 0-.983zM271.452 450.423c-1.343 0-1.811 1.439-1.811 2.555 0 1.115.468 2.554 1.811 2.554 1.439 0 1.811-1.367 1.811-2.554 0-1.188-.372-2.555-1.811-2.555m-2.566-.503l.755 0-.048 1.115.024 0c.192-.336.66-1.259 1.955-1.259 1.799 0 2.519 1.343 2.519 3.202 0 1.811-.84 3.202-2.519 3.202-.959 0-1.535-.396-1.907-1.187l-.024 0 0 3.562-.755 0 0-8.635zM275.869 451.287c0-.672 0-.924-.048-1.367l.756 0 0 1.175.024 0c.276-.684.791-1.32 1.571-1.32.18 0 .396.036.528.073l0 .791c-.156-.048-.36-.072-.552-.072-1.199 0-1.523 1.343-1.523 2.447l0 3.022-.756 0 0-4.749zM282.277 455.532c1.319 0 2.027-1.14 2.027-2.555 0-1.415-.708-2.554-2.027-2.554-1.319 0-2.027 1.139-2.027 2.554 0 1.415.708 2.555 2.027 2.555m0-5.757c1.979 0 2.854 1.535 2.854 3.202 0 1.667-.875 3.202-2.854 3.202-1.979 0-2.854-1.535-2.854-3.202 0-1.667.875-3.202 2.854-3.202M289.297 450.423c-1.343 0-1.811 1.439-1.811 2.555 0 1.115.468 2.554 1.811 2.554 1.439 0 1.811-1.367 1.811-2.554 0-1.188-.372-2.555-1.811-2.555m-2.566-.503l.755 0-.048 1.115.024 0c.192-.336.66-1.259 1.955-1.259 1.799 0 2.519 1.343 2.519 3.202 0 1.811-.84 3.202-2.519 3.202-.959 0-1.535-.396-1.907-1.187l-.024 0 0 3.562-.755 0 0-8.635zM293.715 451.287c0-.672 0-.924-.048-1.367l.756 0 0 1.175.024 0c.276-.684.791-1.32 1.571-1.32.18 0 .396.036.528.073l0 .791c-.156-.048-.36-.072-.552-.072-1.199 0-1.523 1.343-1.523 2.447l0 3.022-.756 0 0-4.749zM297.951 449.92l.756 0 0 6.116-.756 0 0-6.116zm.756-1.632l-.756 0 0-1.007.756 0 0 1.007zM304.585 452.546c0-1.067-.433-2.123-1.56-2.123-1.114 0-1.798 1.116-1.798 2.123l3.358 0zm.372 3.298c-.529.217-1.212.336-1.776.336-2.026 0-2.782-1.367-2.782-3.202 0-1.871 1.031-3.203 2.578-3.203 1.728 0 2.435 1.392 2.435 3.035l0 .383-4.185 0c0 1.296.695 2.339 2.014 2.339.552 0 1.356-.227 1.716-.456l0 .768zM309.733 450.567l-1.391 0 0 3.958c0 .551.204 1.007.815 1.007.288 0 .48-.06.696-.144l.048.623c-.18.073-.552.168-.923.168-1.344 0-1.391-.923-1.391-2.038l0-3.574-1.2 0 0-.647 1.2 0 0-1.476.755-.264 0 1.74 1.391 0 0 .647zM314.065 449.284l-.552 0-1.511-1.728.947 0 1.116 1.728zm.708 3.67l-.216 0c-1.308 0-2.867.132-2.867 1.475 0 .803.576 1.103 1.271 1.103 1.775 0 1.812-1.547 1.812-2.207l0-.371zm.071 2.099l-.024 0c-.336.731-1.187 1.127-1.942 1.127-1.74 0-2.015-1.175-2.015-1.727 0-2.051 2.182-2.147 3.765-2.147l.145 0 0-.312c0-1.043-.373-1.571-1.392-1.571-.635 0-1.235.144-1.799.504l0-.732c.468-.227 1.259-.42 1.799-.42 1.511 0 2.147.684 2.147 2.28l0 2.698c0 .491 0 .863.06 1.283l-.744 0 0-.983zM238.424 415.683c0 2.479-2.01 4.488-4.491 4.488-2.481 0-4.49-2.009-4.49-4.488 0-2.481 2.009-4.493 4.49-4.493 2.481 0 4.491 2.012 4.491 4.493" fill="#fff" fill-rule="nonzero"/>
    <path d="M233.931,412.988c1.504,0 2.7,1.193 2.7,2.695c0,1.502 -1.196,2.696 -2.7,2.696c-1.5,0 -2.693,-1.194 -2.693,-2.696c0,-1.502 1.193,-2.695 2.693,-2.695m0,6.779c2.275,0 4.084,-1.811 4.084,-4.084c0,-2.271 -1.809,-4.084 -4.084,-4.084c-2.271,0 -4.081,1.813 -4.081,4.084c0,2.273 1.81,4.084 4.081,4.084m0,-9.246c2.852,0 5.162,2.311 5.162,5.162c0,2.849 -2.31,5.159 -5.162,5.159c-2.849,0 -5.158,-2.31 -5.158,-5.159c0,-2.851 2.309,-5.162 5.158,-5.162" fill="#e3000f" fill-rule="nonzero"/>
    <path d="M235.803,463.949c0,1.033 -0.837,1.871 -1.872,1.871c-1.033,0 -1.871,-0.838 -1.871,-1.871c0,-1.033 0.838,-1.871 1.871,-1.871c1.035,0 1.872,0.838 1.872,1.871" fill="#fff" fill-rule="nonzero"/>
    <path d="M235.803,463.949c0,1.033 -0.837,1.871 -1.872,1.871c-1.033,0 -1.871,-0.838 -1.871,-1.871c0,-1.033 0.838,-1.871 1.871,-1.871c1.035,0 1.872,0.838 1.872,1.871Z" fill="none" stroke="#1a1a18" stroke-width="0.6px"/>
    <path d="M399.297,463.949c0,1.033 -0.837,1.871 -1.872,1.871c-1.034,0 -1.871,-0.838 -1.871,-1.871c0,-1.033 0.837,-1.871 1.871,-1.871c1.035,0 1.872,0.838 1.872,1.871" fill="#fff" fill-rule="nonzero"/>
    <path d="M399.297,463.949c0,1.033 -0.837,1.871 -1.872,1.871c-1.034,0 -1.871,-0.838 -1.871,-1.871c0,-1.033 0.837,-1.871 1.871,-1.871c1.035,0 1.872,0.838 1.872,1.871Z" fill="none" stroke="#1a1a18" stroke-width="0.6px"/>
    <path d="M336.605,426.795c0,1.033 -0.839,1.872 -1.873,1.872c-1.034,0 -1.872,-0.839 -1.872,-1.872c0,-1.031 0.839,-1.869 1.872,-1.869c1.034,0 1.873,0.838 1.873,1.869" fill="#fff" fill-rule="nonzero"/>
    <path d="M336.605,426.795c0,1.033 -0.839,1.872 -1.873,1.872c-1.034,0 -1.872,-0.839 -1.872,-1.872c0,-1.031 0.839,-1.869 1.872,-1.869c1.034,0 1.873,0.838 1.873,1.869Z" fill="none" stroke="#1a1a18" stroke-width="0.6px"/>
    <path d="M399.297,426.795c0,1.033 -0.839,1.872 -1.872,1.872c-1.034,0 -1.871,-0.839 -1.871,-1.872c0,-1.031 0.837,-1.869 1.871,-1.869c1.033,0 1.872,0.838 1.872,1.869" fill="#fff" fill-rule="nonzero"/>
    <path d="M399.297,426.795c0,1.033 -0.839,1.872 -1.872,1.872c-1.034,0 -1.871,-0.839 -1.871,-1.872c0,-1.031 0.837,-1.869 1.871,-1.869c1.033,0 1.872,0.838 1.872,1.869Z" fill="none" stroke="#1a1a18" stroke-width="0.6px"/>
    <path d="M336.605,415.674c0,1.033 -0.839,1.871 -1.873,1.871c-1.034,0 -1.872,-0.838 -1.872,-1.871c0,-1.033 0.839,-1.87 1.872,-1.87c1.034,0 1.873,0.837 1.873,1.87" fill="#fff" fill-rule="nonzero"/>
    <path d="M336.605,415.674c0,1.033 -0.839,1.871 -1.873,1.871c-1.034,0 -1.872,-0.838 -1.872,-1.871c0,-1.033 0.839,-1.87 1.872,-1.87c1.034,0 1.873,0.837 1.873,1.87Z" fill="none" stroke="#1a1a18" stroke-width="0.6px"/>
  </g>
</svg>
