<svg xmlns="http://www.w3.org/2000/svg" width="12.962" height="13.183" viewBox="0 0 12.962 13.183"><path fill="#E53525" d="M6.564 10.914c-2.4 0-4.35-1.95-4.35-4.35 0-2.4 1.95-4.35 4.35-4.35 2.398 0 4.35 1.95 4.35 4.35 0 2.398-1.952 4.35-4.35 4.35z"/><path fill="#FFF" d="M6.564 3.213c1.847 0 3.35 1.503 3.35 3.35 0 1.848-1.503 3.35-3.35 3.35-1.848 0-3.35-1.5-3.35-3.35 0-1.847 1.502-3.35 3.35-3.35m0-2c-2.955 0-5.35 2.396-5.35 5.35 0 2.955 2.395 5.35 5.35 5.35 2.953 0 5.35-2.395 5.35-5.35 0-2.954-2.397-5.35-5.35-5.35z"/><circle fill="none" stroke="#E53525" stroke-miterlimit="10" cx="6.563" cy="6.564" r="5.35"/></svg>
