<svg aria-hidden="true" style="position: absolute; width: 0; height: 0; overflow: hidden;" version="1.1" xmlns="http://www.w3.org/2000/svg" xmlns:xlink="http://www.w3.org/1999/xlink">
<defs>
<symbol id="icon-minimise" viewBox="0 0 31 32">
<title>minimise</title>
<path d="M28.454 2.393c-0.34 0-0.631 0.122-0.875 0.366l-7.74 7.74v-5.644c0-0.34-0.121-0.63-0.361-0.87s-0.53-0.361-0.87-0.361c-0.34 0-0.63 0.121-0.87 0.361s-0.361 0.53-0.361 0.87v8.615c0 0.34 0.122 0.631 0.366 0.875s0.535 0.366 0.875 0.366h8.615c0.34 0 0.63-0.121 0.87-0.361s0.361-0.53 0.361-0.87c0-0.34-0.121-0.63-0.361-0.87s-0.53-0.361-0.87-0.361h-5.644l7.74-7.74c0.238-0.25 0.356-0.542 0.356-0.875 0-0.34-0.121-0.631-0.361-0.875-0.215-0.218-0.47-0.338-0.87-0.366z"></path>
<path d="M13.685 17.172h-8.615c-0.34 0-0.63 0.121-0.87 0.361s-0.361 0.53-0.361 0.87c0 0.34 0.121 0.63 0.361 0.87s0.53 0.361 0.87 0.361h5.644l-7.74 7.73c-0.244 0.244-0.366 0.535-0.366 0.875s0.122 0.63 0.366 0.87c0.244 0.24 0.535 0.361 0.875 0.361 0.326 0 0.618-0.118 0.875-0.356l7.73-7.74v5.644c0 0.34 0.121 0.63 0.361 0.87s0.53 0.361 0.87 0.361c0.34 0 0.63-0.121 0.87-0.361s0.361-0.53 0.361-0.87v-8.615c0-0.34-0.121-0.63-0.361-0.87-0.215-0.215-0.47-0.334-0.87-0.361z"></path>
</symbol>
<symbol id="icon-zoomToCenter" viewBox="0 0 32 32">
<title>zoomToCenter</title>
<path d="M27.223 28.239c-0.34 0-0.631-0.122-0.875-0.366l-5.279-5.279v3.183c0 0.34-0.121 0.63-0.361 0.87s-0.53 0.361-0.87 0.361c-0.34 0-0.63-0.121-0.87-0.361s-0.361-0.53-0.361-0.87v-6.154c0-0.34 0.122-0.631 0.366-0.875s0.535-0.366 0.875-0.366h6.154c0.34 0 0.63 0.121 0.87 0.361s0.361 0.53 0.361 0.87c0 0.34-0.121 0.63-0.361 0.87s-0.53 0.361-0.87 0.361h-3.183l5.279 5.279c0.238 0.25 0.356 0.542 0.356 0.875 0 0.34-0.121 0.631-0.361 0.875-0.215 0.218-0.47 0.338-0.87 0.366z"></path>
<path d="M27.223 3.614c-0.34 0-0.631 0.122-0.875 0.366l-5.279 5.279v-3.183c0-0.34-0.121-0.63-0.361-0.87s-0.53-0.361-0.87-0.361c-0.34 0-0.63 0.121-0.87 0.361s-0.361 0.53-0.361 0.87v6.154c0 0.34 0.122 0.631 0.366 0.875s0.535 0.366 0.875 0.366h6.154c0.34 0 0.63-0.121 0.87-0.361s0.361-0.53 0.361-0.87c0-0.34-0.121-0.63-0.361-0.87s-0.53-0.361-0.87-0.361h-3.183l5.279-5.279c0.238-0.25 0.356-0.542 0.356-0.875 0-0.34-0.121-0.631-0.361-0.875-0.215-0.218-0.47-0.338-0.87-0.366z"></path>
<path d="M5.070 3.614c0.34 0 0.631 0.122 0.875 0.366l5.279 5.279v-3.183c0-0.34 0.121-0.63 0.361-0.87s0.53-0.361 0.87-0.361c0.34 0 0.63 0.121 0.87 0.361s0.361 0.53 0.361 0.87v6.154c0 0.34-0.122 0.631-0.366 0.875s-0.535 0.366-0.875 0.366h-6.154c-0.34 0-0.63-0.121-0.87-0.361s-0.361-0.53-0.361-0.87c0-0.34 0.121-0.63 0.361-0.87s0.53-0.361 0.87-0.361h3.183l-5.279-5.279c-0.238-0.25-0.356-0.542-0.356-0.875 0-0.34 0.121-0.631 0.361-0.875 0.215-0.218 0.47-0.338 0.87-0.366z"></path>
<path d="M5.070 28.239c0.34 0 0.631-0.122 0.875-0.366l5.279-5.279v3.183c0 0.34 0.121 0.63 0.361 0.87s0.53 0.361 0.87 0.361c0.34 0 0.63-0.121 0.87-0.361s0.361-0.53 0.361-0.87v-6.154c0-0.34-0.122-0.631-0.366-0.875s-0.535-0.366-0.875-0.366h-6.154c-0.34 0-0.63 0.121-0.87 0.361s-0.361 0.53-0.361 0.87c0 0.34 0.121 0.63 0.361 0.87s0.53 0.361 0.87 0.361h3.183l-5.279 5.279c-0.238 0.25-0.356 0.542-0.356 0.875 0 0.34 0.121 0.631 0.361 0.875 0.215 0.218 0.47 0.338 0.87 0.366z"></path>
</symbol>
<symbol id="icon-keyboard_arrow_down" viewBox="0 0 32 32">
<title>keyboard_arrow_down</title>
<path d="M9.875 10.438l6.125 6.125 6.125-6.125 1.875 1.875-8 8-8-8z"></path>
</symbol>
<symbol id="icon-keyboard_arrow_left" viewBox="0 0 32 32">
<title>keyboard_arrow_left</title>
<path d="M20.563 21.438l-1.875 1.875-8-8 8-8 1.875 1.875-6.125 6.125z"></path>
</symbol>
<symbol id="icon-keyboard_arrow_right" viewBox="0 0 32 32">
<title>keyboard_arrow_right</title>
<path d="M11.438 21.813l6.125-6.125-6.125-6.125 1.875-1.875 8 8-8 8z"></path>
</symbol>
<symbol id="icon-keyboard_arrow_up" viewBox="0 0 32 32">
<title>keyboard_arrow_up</title>
<path d="M9.875 20.563l-1.875-1.875 8-8 8 8-1.875 1.875-6.125-6.125z"></path>
</symbol>
<symbol id="icon-link" viewBox="0 0 32 32">
<title>link</title>
<path d="M22.667 1.333q1.573 0 3.036 0.594t2.62 1.75 1.75 2.62 0.594 3.036q0 1.563-0.599 3.036t-1.745 2.62l-4 4q-0.115 0.115-0.344 0.323-1.115 0.99-2.49 1.505t-2.823 0.516q-1.823 0-3.448-0.781-1.219-0.573-2.208-1.563t-1.563-2.208q0.781-0.781 1.885-0.781 0.385 0 0.781 0.115 0.677 1.094 1.771 1.771 1.281 0.781 2.781 0.781 1.042 0 2.021-0.396t1.75-1.167l4-4q0.771-0.771 1.167-1.75t0.396-2.021-0.396-2.021-1.167-1.75-1.75-1.167-2.021-0.396-2.021 0.396-1.75 1.167l-2.802 2.802q-1.333-0.365-2.76-0.365-0.229 0-0.646 0.021 0.208-0.229 0.323-0.344l4-4q1.146-1.146 2.62-1.745t3.036-0.599zM13.333 10.667q1.823 0 3.448 0.781 1.219 0.573 2.208 1.563t1.563 2.208q-0.781 0.781-1.885 0.781-0.385 0-0.781-0.115-0.677-1.094-1.771-1.771-1.281-0.781-2.781-0.781-1.042 0-2.021 0.396t-1.75 1.167l-4 4q-0.771 0.771-1.167 1.75t-0.396 2.021 0.396 2.021 1.167 1.75 1.75 1.167 2.021 0.396 2.021-0.396 1.75-1.167l2.802-2.802q1.333 0.365 2.76 0.365 0.229 0 0.646-0.021-0.208 0.229-0.323 0.344l-4 4q-1.156 1.156-2.62 1.75t-3.036 0.594q-1.563 0-3.036-0.599t-2.62-1.745q-1.156-1.156-1.75-2.62t-0.594-3.036 0.594-3.036 1.75-2.62l4-4q0.115-0.115 0.344-0.323 1.115-0.99 2.49-1.505t2.823-0.516z"></path>
</symbol>
<symbol id="icon-target" viewBox="0 0 32 32">
<title>target</title>
<path d="M16 1.333q2.99 0 5.703 1.161t4.677 3.125 3.125 4.677 1.161 5.703-1.161 5.703-3.125 4.677-4.677 3.125-5.703 1.161-5.703-1.161-4.677-3.125-3.125-4.677-1.161-5.703 1.161-5.703 3.125-4.677 4.677-3.125 5.703-1.161zM16 4q-2.438 0-4.661 0.953t-3.828 2.557-2.557 3.828-0.953 4.661 0.953 4.661 2.557 3.828 3.828 2.557 4.661 0.953 4.661-0.953 3.828-2.557 2.557-3.828 0.953-4.661-0.953-4.661-2.557-3.828-3.828-2.557-4.661-0.953zM16 6.667q1.896 0 3.625 0.74t2.979 1.99 1.99 2.979 0.74 3.625-0.74 3.625-1.99 2.979-2.979 1.99-3.625 0.74-3.625-0.74-2.979-1.99-1.99-2.979-0.74-3.625 0.74-3.625 1.99-2.979 2.979-1.99 3.625-0.74zM16 9.333q-1.354 0-2.589 0.531t-2.125 1.422-1.422 2.125-0.531 2.589 0.531 2.589 1.422 2.125 2.125 1.422 2.589 0.531 2.589-0.531 2.125-1.422 1.422-2.125 0.531-2.589-0.531-2.589-1.422-2.125-2.125-1.422-2.589-0.531zM16 12q1.656 0 2.828 1.172t1.172 2.828-1.172 2.828-2.828 1.172-2.828-1.172-1.172-2.828 1.172-2.828 2.828-1.172zM16 14.667q-0.552 0-0.943 0.391t-0.391 0.943 0.391 0.943 0.943 0.391 0.943-0.391 0.391-0.943-0.391-0.943-0.943-0.391z"></path>
</symbol>
<symbol id="icon-cog" viewBox="0 0 32 32">
<title>cog</title>
<path d="M16 0q1.656 0 2.828 1.172t1.172 2.828v0.688q0.49 0.167 1.177 0.479l0.479-0.479q1.177-1.177 2.833-1.177 1.646 0 2.823 1.177t1.177 2.823q0 1.656-1.177 2.833l-0.479 0.479q0.313 0.688 0.479 1.177h0.688q1.656 0 2.828 1.172t1.172 2.828-1.172 2.828-2.828 1.172h-0.688q-0.167 0.49-0.479 1.177l0.479 0.479q1.177 1.177 1.177 2.833 0 1.646-1.177 2.823t-2.823 1.177q-1.656 0-2.833-1.177l-0.479-0.479q-0.688 0.313-1.177 0.479v0.688q0 1.656-1.172 2.828t-2.828 1.172-2.828-1.172-1.172-2.828v-0.688q-0.49-0.167-1.177-0.479l-0.479 0.479q-1.177 1.177-2.823 1.177-1.656 0-2.828-1.177t-1.172-2.823q0-1.667 1.167-2.833l0.479-0.479q-0.313-0.688-0.479-1.177h-0.688q-1.656 0-2.828-1.172t-1.172-2.828 1.172-2.828 2.828-1.172h0.688q0.167-0.49 0.479-1.177l-0.479-0.479q-1.167-1.167-1.167-2.833 0-1.646 1.172-2.823t2.828-1.177q1.646 0 2.823 1.177l0.479 0.479q0.688-0.313 1.177-0.479v-0.688q0-1.656 1.172-2.828t2.828-1.172zM16 2.667q-0.552 0-0.943 0.391t-0.391 0.943v2.76q-2.333 0.333-4.26 1.76l-1.948-1.948q-0.396-0.396-0.938-0.396-0.552 0-0.943 0.391t-0.391 0.943q0 0.562 0.385 0.948l1.948 1.948q-1.427 1.927-1.76 4.26h-2.76q-0.552 0-0.943 0.391t-0.391 0.943 0.391 0.943 0.943 0.391h2.76q0.333 2.333 1.76 4.26l-1.948 1.948q-0.385 0.385-0.385 0.948 0 0.552 0.391 0.943t0.943 0.391q0.542 0 0.937-0.396l1.948-1.948q1.927 1.427 4.26 1.76v2.76q0 0.552 0.391 0.943t0.943 0.391 0.943-0.391 0.391-0.943v-2.76q2.333-0.333 4.26-1.76l1.948 1.948q0.396 0.396 0.948 0.396t0.943-0.391 0.391-0.943-0.396-0.948l-1.948-1.948q1.427-1.927 1.76-4.26h2.76q0.552 0 0.943-0.391t0.391-0.943-0.391-0.943-0.943-0.391h-2.76q-0.333-2.333-1.76-4.26l1.948-1.948q0.396-0.396 0.396-0.948t-0.391-0.943-0.943-0.391-0.948 0.396l-1.948 1.948q-1.927-1.427-4.26-1.76v-2.76q0-0.552-0.391-0.943t-0.943-0.391zM16 10.667q2.208 0 3.771 1.563t1.563 3.771-1.563 3.771-3.771 1.563-3.771-1.563-1.563-3.771 1.563-3.771 3.771-1.563zM16 13.333q-1.104 0-1.885 0.781t-0.781 1.885 0.781 1.885 1.885 0.781 1.885-0.781 0.781-1.885-0.781-1.885-1.885-0.781z"></path>
</symbol>
<symbol id="icon-heart" viewBox="0 0 32 32">
<title>heart</title>
<path d="M23.542 2.667q2.177 0 4.016 1.073t2.911 2.911 1.073 4.016q0 1.563-0.599 3.036t-1.745 2.62l-13.198 13.198-13.198-13.198q-1.146-1.146-1.745-2.62t-0.599-3.036q0-2.177 1.073-4.016t2.911-2.911 4.016-1.073q1.573 0 3.036 0.594t2.62 1.75l1.885 1.885 1.885-1.885q1.146-1.146 2.62-1.745t3.036-0.599zM23.542 5.333q-1.042 0-2.021 0.396t-1.75 1.167l-3.771 3.771-3.771-3.771q-0.771-0.771-1.75-1.167t-2.021-0.396q-1.458 0-2.682 0.714t-1.938 1.938-0.714 2.682q0 1.042 0.396 2.021t1.167 1.75l11.313 11.313 11.312-11.313q0.771-0.771 1.167-1.75t0.396-2.021q0-1.458-0.714-2.682t-1.938-1.938-2.682-0.714z"></path>
</symbol>
<symbol id="icon-layers" viewBox="0 0 32 32">
<title>layers</title>
<path d="M0 9.333l16-8 16 8-16 8zM16 25.677l13-6.51 3 1.5-16 8.010-16-8.010 3-1.5zM16 20.010l13-6.5 3 1.5-16 8-16-8 3-1.5zM26.042 9.333l-10.042-5.021-10.042 5.021 10.042 5.021z"></path>
</symbol>
<symbol id="icon-search" viewBox="0 0 32 32">
<title>search</title>
<path d="M13.333 1.333q2.438 0 4.661 0.953t3.828 2.557 2.557 3.828 0.953 4.661q0 2.094-0.682 4.010t-1.943 3.479l7.573 7.563q0.385 0.385 0.385 0.948 0 0.573-0.38 0.953t-0.953 0.38q-0.563 0-0.948-0.385l-7.563-7.573q-1.563 1.26-3.479 1.943t-4.010 0.682q-2.438 0-4.661-0.953t-3.828-2.557-2.557-3.828-0.953-4.661 0.953-4.661 2.557-3.828 3.828-2.557 4.661-0.953zM13.333 4q-1.896 0-3.625 0.74t-2.979 1.99-1.99 2.979-0.74 3.625 0.74 3.625 1.99 2.979 2.979 1.99 3.625 0.74 3.625-0.74 2.979-1.99 1.99-2.979 0.74-3.625-0.74-3.625-1.99-2.979-2.979-1.99-3.625-0.74z"></path>
</symbol>
<symbol id="icon-zoom-in" viewBox="0 0 32 32">
<title>zoom-in</title>
<path d="M13.333 1.333q2.438 0 4.661 0.953t3.828 2.557 2.557 3.828 0.953 4.661q0 2.094-0.682 4.010t-1.943 3.479l7.573 7.563q0.385 0.385 0.385 0.948 0 0.573-0.38 0.953t-0.953 0.38q-0.563 0-0.948-0.385l-7.563-7.573q-1.563 1.26-3.479 1.943t-4.010 0.682q-2.438 0-4.661-0.953t-3.828-2.557-2.557-3.828-0.953-4.661 0.953-4.661 2.557-3.828 3.828-2.557 4.661-0.953zM13.333 4q-1.896 0-3.625 0.74t-2.979 1.99-1.99 2.979-0.74 3.625 0.74 3.625 1.99 2.979 2.979 1.99 3.625 0.74 3.625-0.74 2.979-1.99 1.99-2.979 0.74-3.625-0.74-3.625-1.99-2.979-2.979-1.99-3.625-0.74zM13.333 8q0.552 0 0.943 0.391t0.391 0.943v2.667h2.667q0.552 0 0.943 0.391t0.391 0.943-0.391 0.943-0.943 0.391h-2.667v2.667q0 0.552-0.391 0.943t-0.943 0.391-0.943-0.391-0.391-0.943v-2.667h-2.667q-0.552 0-0.943-0.391t-0.391-0.943 0.391-0.943 0.943-0.391h2.667v-2.667q0-0.552 0.391-0.943t0.943-0.391z"></path>
</symbol>
<symbol id="icon-zoom-out" viewBox="0 0 32 32">
<title>zoom-out</title>
<path d="M13.333 1.333q2.438 0 4.661 0.953t3.828 2.557 2.557 3.828 0.953 4.661q0 2.094-0.682 4.010t-1.943 3.479l7.573 7.563q0.385 0.385 0.385 0.948 0 0.573-0.38 0.953t-0.953 0.38q-0.563 0-0.948-0.385l-7.563-7.573q-1.563 1.26-3.479 1.943t-4.010 0.682q-2.438 0-4.661-0.953t-3.828-2.557-2.557-3.828-0.953-4.661 0.953-4.661 2.557-3.828 3.828-2.557 4.661-0.953zM13.333 4q-1.896 0-3.625 0.74t-2.979 1.99-1.99 2.979-0.74 3.625 0.74 3.625 1.99 2.979 2.979 1.99 3.625 0.74 3.625-0.74 2.979-1.99 1.99-2.979 0.74-3.625-0.74-3.625-1.99-2.979-2.979-1.99-3.625-0.74zM9.333 12h8q0.552 0 0.943 0.391t0.391 0.943-0.391 0.943-0.943 0.391h-8q-0.552 0-0.943-0.391t-0.391-0.943 0.391-0.943 0.943-0.391z"></path>
</symbol>
<symbol id="icon-circle-plus" viewBox="0 0 32 32">
<title>circle-plus</title>
<path d="M16 1.333q2.99 0 5.703 1.161t4.677 3.125 3.125 4.677 1.161 5.703-1.161 5.703-3.125 4.677-4.677 3.125-5.703 1.161-5.703-1.161-4.677-3.125-3.125-4.677-1.161-5.703 1.161-5.703 3.125-4.677 4.677-3.125 5.703-1.161zM16 4q-2.438 0-4.661 0.953t-3.828 2.557-2.557 3.828-0.953 4.661 0.953 4.661 2.557 3.828 3.828 2.557 4.661 0.953 4.661-0.953 3.828-2.557 2.557-3.828 0.953-4.661-0.953-4.661-2.557-3.828-3.828-2.557-4.661-0.953zM16 9.333q0.552 0 0.943 0.391t0.391 0.943v4h4q0.552 0 0.943 0.391t0.391 0.943-0.391 0.943-0.943 0.391h-4v4q0 0.552-0.391 0.943t-0.943 0.391-0.943-0.391-0.391-0.943v-4h-4q-0.552 0-0.943-0.391t-0.391-0.943 0.391-0.943 0.943-0.391h4v-4q0-0.552 0.391-0.943t0.943-0.391z"></path>
</symbol>
<symbol id="icon-circle-minus" viewBox="0 0 32 32">
<title>circle-minus</title>
<path d="M16 1.333q2.99 0 5.703 1.161t4.677 3.125 3.125 4.677 1.161 5.703-1.161 5.703-3.125 4.677-4.677 3.125-5.703 1.161-5.703-1.161-4.677-3.125-3.125-4.677-1.161-5.703 1.161-5.703 3.125-4.677 4.677-3.125 5.703-1.161zM16 4q-2.438 0-4.661 0.953t-3.828 2.557-2.557 3.828-0.953 4.661 0.953 4.661 2.557 3.828 3.828 2.557 4.661 0.953 4.661-0.953 3.828-2.557 2.557-3.828 0.953-4.661-0.953-4.661-2.557-3.828-3.828-2.557-4.661-0.953zM10.667 14.667h10.667q0.552 0 0.943 0.391t0.391 0.943-0.391 0.943-0.943 0.391h-10.667q-0.552 0-0.943-0.391t-0.391-0.943 0.391-0.943 0.943-0.391z"></path>
</symbol>
<symbol id="icon-circle-check" viewBox="0 0 32 32">
<title>circle-check</title>
<path d="M16 1.333q2.99 0 5.703 1.161t4.677 3.125 3.125 4.677 1.161 5.703-1.161 5.703-3.125 4.677-4.677 3.125-5.703 1.161-5.703-1.161-4.677-3.125-3.125-4.677-1.161-5.703 1.161-5.703 3.125-4.677 4.677-3.125 5.703-1.161zM16 4q-2.438 0-4.661 0.953t-3.828 2.557-2.557 3.828-0.953 4.661 0.953 4.661 2.557 3.828 3.828 2.557 4.661 0.953 4.661-0.953 3.828-2.557 2.557-3.828 0.953-4.661-0.953-4.661-2.557-3.828-3.828-2.557-4.661-0.953zM20.49 11.99q0.552 0 0.943 0.391t0.391 0.943-0.396 0.948l-5.656 5.656q-0.385 0.385-0.938 0.385-0.563 0-0.948-0.385l-2.833-2.823q-0.385-0.385-0.385-0.948 0-0.552 0.391-0.943t0.943-0.391 0.948 0.396l1.885 1.885 4.708-4.719q0.396-0.396 0.948-0.396z"></path>
</symbol>
<symbol id="icon-circle-cross" viewBox="0 0 32 32">
<title>circle-cross</title>
<path d="M16 1.333q2.99 0 5.703 1.161t4.677 3.125 3.125 4.677 1.161 5.703-1.161 5.703-3.125 4.677-4.677 3.125-5.703 1.161-5.703-1.161-4.677-3.125-3.125-4.677-1.161-5.703 1.161-5.703 3.125-4.677 4.677-3.125 5.703-1.161zM16 4q-2.438 0-4.661 0.953t-3.828 2.557-2.557 3.828-0.953 4.661 0.953 4.661 2.557 3.828 3.828 2.557 4.661 0.953 4.661-0.953 3.828-2.557 2.557-3.828 0.953-4.661-0.953-4.661-2.557-3.828-3.828-2.557-4.661-0.953zM19.771 10.885q0.552 0 0.948 0.391t0.396 0.943-0.396 0.948l-2.833 2.833 2.833 2.823q0.396 0.396 0.396 0.938 0 0.552-0.396 0.943t-0.948 0.391-0.938-0.385l-2.833-2.823-2.823 2.823q-0.385 0.385-0.948 0.385-0.552 0-0.943-0.385t-0.391-0.938q0-0.563 0.385-0.948l2.833-2.823-2.833-2.833q-0.385-0.385-0.385-0.938t0.391-0.948 0.943-0.396 0.948 0.396l2.823 2.833 2.833-2.833q0.396-0.396 0.938-0.396z"></path>
</symbol>
<symbol id="icon-square-plus" viewBox="0 0 32 32">
<title>square-plus</title>
<path d="M5.333 1.333h21.333q1.656 0 2.828 1.172t1.172 2.828v21.333q0 1.656-1.172 2.828t-2.828 1.172h-21.333q-1.656 0-2.828-1.172t-1.172-2.828v-21.333q0-1.656 1.172-2.828t2.828-1.172zM26.667 4h-21.333q-0.552 0-0.943 0.391t-0.391 0.943v21.333q0 0.552 0.391 0.943t0.943 0.391h21.333q0.552 0 0.943-0.391t0.391-0.943v-21.333q0-0.552-0.391-0.943t-0.943-0.391zM16 9.333q0.552 0 0.943 0.391t0.391 0.943v4h4q0.552 0 0.943 0.391t0.391 0.943-0.391 0.943-0.943 0.391h-4v4q0 0.552-0.391 0.943t-0.943 0.391-0.943-0.391-0.391-0.943v-4h-4q-0.552 0-0.943-0.391t-0.391-0.943 0.391-0.943 0.943-0.391h4v-4q0-0.552 0.391-0.943t0.943-0.391z"></path>
</symbol>
<symbol id="icon-square-minus" viewBox="0 0 32 32">
<title>square-minus</title>
<path d="M5.333 1.333h21.333q1.656 0 2.828 1.172t1.172 2.828v21.333q0 1.656-1.172 2.828t-2.828 1.172h-21.333q-1.656 0-2.828-1.172t-1.172-2.828v-21.333q0-1.656 1.172-2.828t2.828-1.172zM26.667 4h-21.333q-0.552 0-0.943 0.391t-0.391 0.943v21.333q0 0.552 0.391 0.943t0.943 0.391h21.333q0.552 0 0.943-0.391t0.391-0.943v-21.333q0-0.552-0.391-0.943t-0.943-0.391zM10.667 14.667h10.667q0.552 0 0.943 0.391t0.391 0.943-0.391 0.943-0.943 0.391h-10.667q-0.552 0-0.943-0.391t-0.391-0.943 0.391-0.943 0.943-0.391z"></path>
</symbol>
<symbol id="icon-square-check" viewBox="0 0 32 32">
<title>square-check</title>
<path d="M5.333 1.333h21.333q1.656 0 2.828 1.172t1.172 2.828v21.333q0 1.656-1.172 2.828t-2.828 1.172h-21.333q-1.656 0-2.828-1.172t-1.172-2.828v-21.333q0-1.656 1.172-2.828t2.828-1.172zM26.667 4h-21.333q-0.552 0-0.943 0.391t-0.391 0.943v21.333q0 0.552 0.391 0.943t0.943 0.391h21.333q0.552 0 0.943-0.391t0.391-0.943v-21.333q0-0.552-0.391-0.943t-0.943-0.391zM21.333 11.365q0.542 0 0.938 0.391t0.396 0.943-0.396 0.948l-6.594 6.594q-0.385 0.385-0.938 0.385-0.563 0-0.948-0.385l-3.771-3.771q-0.385-0.385-0.385-0.948 0-0.552 0.391-0.943t0.943-0.391q0.542 0 0.938 0.396l2.823 2.833 5.656-5.656q0.396-0.396 0.948-0.396z"></path>
</symbol>
<symbol id="icon-square-cross" viewBox="0 0 32 32">
<title>square-cross</title>
<path d="M5.333 1.333h21.333q1.656 0 2.828 1.172t1.172 2.828v21.333q0 1.656-1.172 2.828t-2.828 1.172h-21.333q-1.656 0-2.828-1.172t-1.172-2.828v-21.333q0-1.656 1.172-2.828t2.828-1.172zM26.667 4h-21.333q-0.552 0-0.943 0.391t-0.391 0.943v21.333q0 0.552 0.391 0.943t0.943 0.391h21.333q0.552 0 0.943-0.391t0.391-0.943v-21.333q0-0.552-0.391-0.943t-0.943-0.391zM19.771 10.885q0.552 0 0.948 0.396t0.396 0.948-0.396 0.948l-2.833 2.823 2.833 2.823q0.396 0.396 0.396 0.948t-0.396 0.943-0.948 0.391-0.938-0.385l-2.833-2.833-2.833 2.833q-0.375 0.385-0.938 0.385-0.573 0-0.953-0.38t-0.38-0.953q0-0.563 0.385-0.948l2.833-2.823-2.833-2.823q-0.385-0.385-0.385-0.948 0-0.552 0.391-0.948t0.943-0.396q0.563 0 0.938 0.396l2.833 2.833 2.833-2.833q0.396-0.396 0.938-0.396z"></path>
</symbol>
<symbol id="icon-repeat" viewBox="0 0 32 32">
<title>repeat</title>
<path d="M1.333 17.333h8q0.552 0 0.943 0.391t0.391 0.943-0.391 0.943-0.943 0.391h-4.5l3.625 3.542q1.542 1.552 3.531 2.344 1.906 0.781 4.010 0.781t4.010-0.781q1.042-0.427 1.953-1.047t1.552-1.271 1.167-1.396 0.844-1.37 0.536-1.25q0.188-0.521 0.688-0.755t1.010-0.057q0.521 0.188 0.755 0.682t0.057 1.005q-0.438 1.333-1.271 2.646t-1.875 2.354q-1.917 1.917-4.406 2.927-2.417 0.979-5.021 0.979-2.594 0-5.021-0.979-2.49-1.010-4.406-2.927l-3.906-3.823v5.063q0 0.552-0.391 0.943t-0.943 0.391-0.943-0.391-0.391-0.943v-8q0-0.552 0.391-0.943t0.943-0.391zM16 2.667q2.594 0 5.021 0.979 2.49 1.010 4.406 2.927l0.021 0.021 3.885 3.802v-5.063q0-0.552 0.391-0.943t0.943-0.391 0.943 0.391 0.391 0.943v8q0 0.552-0.391 0.943t-0.943 0.391h-8q-0.552 0-0.943-0.391t-0.391-0.943 0.391-0.943 0.943-0.391h4.5l-3.625-3.542q-1.521-1.521-3.464-2.323t-4.078-0.802q-2.104 0-4.010 0.781-1.99 0.792-3.531 2.344-0.625 0.552-1.37 1.682t-1.151 2.307q-0.188 0.521-0.688 0.755t-1.010 0.057q-0.521-0.188-0.755-0.682t-0.057-1.005q0.438-1.333 1.271-2.646t1.875-2.354q1.917-1.917 4.406-2.927 2.427-0.979 5.021-0.979z"></path>
</symbol>
<symbol id="icon-location-2" viewBox="0 0 32 32">
<title>location-2</title>
<path d="M16 1.333q2.99 0 5.703 1.161t4.677 3.125 3.125 4.677 1.161 5.703-1.161 5.703-3.125 4.677-4.677 3.125-5.703 1.161-5.703-1.161-4.677-3.125-3.125-4.677-1.161-5.703 1.161-5.703 3.125-4.677 4.677-3.125 5.703-1.161zM17.333 4.073v3.927q0 0.552-0.391 0.943t-0.943 0.391-0.943-0.391-0.391-0.943v-3.927q-2.063 0.229-3.911 1.135t-3.245 2.302-2.302 3.245-1.135 3.911h3.927q0.552 0 0.943 0.391t0.391 0.943-0.391 0.943-0.943 0.391h-3.927q0.229 2.063 1.135 3.911t2.302 3.245 3.245 2.302 3.911 1.135v-3.927q0-0.552 0.391-0.943t0.943-0.391 0.943 0.391 0.391 0.943v3.927q2.063-0.229 3.911-1.135t3.245-2.302 2.302-3.245 1.135-3.911h-3.927q-0.552 0-0.943-0.391t-0.391-0.943 0.391-0.943 0.943-0.391h3.927q-0.229-2.063-1.135-3.911t-2.302-3.245-3.245-2.302-3.911-1.135z"></path>
</symbol>
<symbol id="icon-map" viewBox="0 0 32 32">
<title>map</title>
<path d="M21.333 6.667l10.667-6.667v25.333l-10.667 6.667-10.667-6.667-10.667 6.667v-25.333l10.667-6.667zM9.333 23.021v-19.031l-6.667 4.167v19.031zM20 8.979l-8-5.010v19.052l8 5v-19.042zM29.333 23.854v-19.042l-6.667 4.167v19.042z"></path>
</symbol>
<symbol id="icon-speech-bubble" viewBox="0 0 32 32">
<title>speech-bubble</title>
<path d="M5.333 1.333h21.333q1.656 0 2.828 1.172t1.172 2.828v14.667q0 1.656-1.172 2.828t-2.828 1.172h-10.667l-9.333 6.667v-6.667h-1.333q-1.656 0-2.828-1.172t-1.172-2.828v-14.667q0-1.656 1.172-2.828t2.828-1.172zM26.667 4h-21.333q-0.552 0-0.943 0.391t-0.391 0.943v14.667q0 0.552 0.391 0.943t0.943 0.391h4v4.156l5.813-4.156h11.521q0.552 0 0.943-0.391t0.391-0.943v-14.667q0-0.552-0.391-0.943t-0.943-0.391z"></path>
</symbol>
<symbol id="icon-globe" viewBox="0 0 32 32">
<title>globe</title>
<path d="M16 1.333q0.375 0 0.563 0.010 1.938 0.073 3.766 0.641t3.38 1.526 2.849 2.307 2.198 2.932 1.406 3.443 0.505 3.807-0.505 3.807-1.406 3.443-2.198 2.932-2.849 2.307-3.38 1.526-3.766 0.641q-0.188 0.010-0.563 0.010t-0.563-0.010q-1.938-0.073-3.766-0.641t-3.38-1.526-2.849-2.307-2.198-2.932-1.406-3.443-0.505-3.807 0.505-3.807 1.406-3.443 2.198-2.932 2.849-2.307 3.38-1.526 3.766-0.641q0.188-0.010 0.563-0.010zM9.385 17.333h-5.313q0.417 3.719 2.865 6.531t6.021 3.75q-1.354-2.052-2.359-4.651t-1.214-5.63zM19.948 17.333h-7.896q0.104 1.333 0.432 2.667t0.734 2.359 0.938 2.026 0.958 1.646 0.885 1.24q0.458-0.594 0.885-1.245t0.958-1.651 0.938-2.026 0.734-2.354 0.432-2.661zM12.958 4.385q-3.573 0.938-6.021 3.75t-2.865 6.531h5.313q0.365-5.438 3.573-10.281zM27.927 17.333h-5.302q-0.385 5.448-3.583 10.281 3.573-0.938 6.021-3.75t2.865-6.531zM16 4.729q-0.458 0.594-0.88 1.245t-0.958 1.651-0.943 2.026-0.734 2.354-0.432 2.661h7.896q-0.104-1.333-0.432-2.667t-0.734-2.359-0.938-2.026-0.958-1.646-0.885-1.24zM19.042 4.385q3.198 4.833 3.583 10.281h5.302q-0.417-3.719-2.865-6.531t-6.021-3.75z"></path>
</symbol>
<symbol id="icon-star" viewBox="0 0 32 32">
<title>star</title>
<path d="M12.396 12l3.604-11.094 3.604 11.094h11.667l-9.438 6.552 3.604 10.896-9.438-6.906-9.438 6.854 3.604-10.844-9.438-6.552h11.667zM17.667 14.667l-1.667-5.302-1.667 5.302h-5.177l4.167 2.76-1.635 4.927 4.323-3.125 4.302 3.156-1.635-4.927 4.156-2.792h-5.167z"></path>
</symbol>
<symbol id="icon-arrow-left" viewBox="0 0 32 32">
<title>arrow-left</title>
<path d="M13.333 5.333q0.552 0 0.943 0.391t0.391 0.943q0 0.563-0.396 0.948l-7.052 7.052h20.781q0.552 0 0.943 0.391t0.391 0.943-0.391 0.943-0.943 0.391h-20.781l7.052 7.052q0.396 0.385 0.396 0.948 0 0.552-0.391 0.943t-0.943 0.391q-0.563 0-0.948-0.385l-9.333-9.333q-0.385-0.406-0.385-0.948t0.385-0.948l9.333-9.333q0.396-0.385 0.948-0.385z"></path>
</symbol>
<symbol id="icon-arrow-right" viewBox="0 0 32 32">
<title>arrow-right</title>
<path d="M18.667 5.333q0.563 0 0.948 0.385l9.333 9.333q0.385 0.385 0.385 0.948t-0.385 0.948l-9.333 9.333q-0.385 0.385-0.948 0.385-0.573 0-0.953-0.38t-0.38-0.953q0-0.563 0.385-0.948l7.063-7.052h-20.781q-0.552 0-0.943-0.391t-0.391-0.943 0.391-0.943 0.943-0.391h20.781l-7.063-7.052q-0.385-0.385-0.385-0.948 0-0.573 0.38-0.953t0.953-0.38z"></path>
</symbol>
<symbol id="icon-arrow-up" viewBox="0 0 32 32">
<title>arrow-up</title>
<path d="M16 2.667q0.563 0 0.948 0.385l9.333 9.333q0.385 0.385 0.385 0.948 0 0.573-0.38 0.953t-0.953 0.38q-0.563 0-0.948-0.385l-7.052-7.063v20.781q0 0.552-0.391 0.943t-0.943 0.391-0.943-0.391-0.391-0.943v-20.781l-7.052 7.063q-0.385 0.385-0.948 0.385-0.573 0-0.953-0.38t-0.38-0.953q0-0.563 0.385-0.948l9.333-9.333q0.385-0.385 0.948-0.385z"></path>
</symbol>
<symbol id="icon-arrow-down" viewBox="0 0 32 32">
<title>arrow-down</title>
<path d="M16 2.667q0.552 0 0.943 0.391t0.391 0.943v20.781l7.052-7.063q0.385-0.385 0.948-0.385 0.573 0 0.953 0.38t0.38 0.953q0 0.563-0.385 0.948l-9.333 9.333q-0.385 0.385-0.948 0.385t-0.948-0.385l-9.333-9.333q-0.385-0.385-0.385-0.948 0-0.573 0.38-0.953t0.953-0.38q0.563 0 0.948 0.385l7.052 7.063v-20.781q0-0.552 0.391-0.943t0.943-0.391z"></path>
</symbol>
<symbol id="icon-maximize" viewBox="0 0 32 32">
<title>maximize</title>
<path d="M18.667 17.323q0.552 0 0.948 0.396l8.385 8.385v-6.115q0-0.552 0.391-0.943t0.943-0.391 0.943 0.391 0.391 0.943v9.333q0 0.552-0.396 0.948t-0.948 0.396h-9.333q-0.552 0-0.943-0.391t-0.391-0.943 0.391-0.943 0.943-0.391h6.115l-8.385-8.385q-0.385-0.406-0.385-0.948 0-0.552 0.391-0.948t0.943-0.396zM2.667 1.333h9.333q0.552 0 0.943 0.391t0.391 0.943-0.391 0.943-0.943 0.391h-6.115l8.385 8.375q0.396 0.396 0.396 0.948t-0.396 0.943-0.948 0.391q-0.531 0-0.948-0.385l-8.375-8.385v6.115q0 0.552-0.391 0.943t-0.943 0.391-0.943-0.391-0.391-0.943v-9.333q0-0.552 0.391-0.943t0.943-0.391z"></path>
</symbol>
<symbol id="icon-plus" viewBox="0 0 32 32">
<title>plus</title>
<path d="M16 2.667q0.552 0 0.943 0.391t0.391 0.943v10.667h10.667q0.552 0 0.943 0.391t0.391 0.943-0.391 0.943-0.943 0.391h-10.667v10.667q0 0.552-0.391 0.943t-0.943 0.391-0.943-0.391-0.391-0.943v-10.667h-10.667q-0.552 0-0.943-0.391t-0.391-0.943 0.391-0.943 0.943-0.391h10.667v-10.667q0-0.552 0.391-0.943t0.943-0.391z"></path>
</symbol>
<symbol id="icon-minus" viewBox="0 0 32 32">
<title>minus</title>
<path d="M4 14.667h24q0.552 0 0.943 0.391t0.391 0.943-0.391 0.943-0.943 0.391h-24q-0.552 0-0.943-0.391t-0.391-0.943 0.391-0.943 0.943-0.391z"></path>
</symbol>
<symbol id="icon-check" viewBox="0 0 32 32">
<title>check</title>
<path d="M28 6.667q0.573 0 0.953 0.38t0.38 0.953q0 0.563-0.385 0.948l-16 16q-0.385 0.385-0.948 0.385t-0.948-0.385l-8-8q-0.385-0.385-0.385-0.948 0-0.573 0.38-0.953t0.953-0.38q0.563 0 0.948 0.385l7.052 7.063 15.052-15.063q0.385-0.385 0.948-0.385z"></path>
</symbol>
<symbol id="icon-cross" viewBox="0 0 32 32">
<title>cross</title>
<path d="M25.333 5.333q0.573 0 0.953 0.38t0.38 0.953q0 0.563-0.385 0.948l-8.396 8.385 8.396 8.385q0.385 0.385 0.385 0.948 0 0.573-0.38 0.953t-0.953 0.38q-0.563 0-0.948-0.385l-8.385-8.396-8.385 8.396q-0.385 0.385-0.948 0.385-0.573 0-0.953-0.38t-0.38-0.953q0-0.563 0.385-0.948l8.396-8.385-8.396-8.385q-0.385-0.385-0.385-0.948 0-0.573 0.38-0.953t0.953-0.38q0.563 0 0.948 0.385l8.385 8.396 8.385-8.396q0.385-0.385 0.948-0.385z"></path>
</symbol>
<symbol id="icon-delete" viewBox="0 0 32 32">
<title>delete</title>
<path d="M10.667 4h17.333q1.656 0 2.828 1.172t1.172 2.828v16q0 1.656-1.172 2.828t-2.828 1.172h-17.333l-10.667-12zM28 6.667h-16.135l-8.292 9.333 8.292 9.333h16.135q0.552 0 0.943-0.391t0.391-0.943v-16q0-0.552-0.391-0.943t-0.943-0.391zM25.333 12q0 0.563-0.385 0.948l-3.063 3.052 3.063 3.052q0.385 0.385 0.385 0.948 0 0.573-0.38 0.953t-0.953 0.38q-0.563 0-0.948-0.385l-3.052-3.063-3.052 3.063q-0.385 0.385-0.948 0.385-0.552 0-0.943-0.391t-0.391-0.943q0-0.542 0.385-0.948l3.062-3.052-3.063-3.052q-0.385-0.406-0.385-0.948 0-0.552 0.391-0.943t0.943-0.391q0.563 0 0.948 0.385l3.052 3.063 3.052-3.063q0.385-0.385 0.948-0.385 0.573 0 0.953 0.38t0.38 0.953z"></path>
</symbol>
<symbol id="icon-menu" viewBox="0 0 32 32">
<title>menu</title>
<path d="M4 6.667h24q0.552 0 0.943 0.391t0.391 0.943-0.391 0.943-0.943 0.391h-24q-0.552 0-0.943-0.391t-0.391-0.943 0.391-0.943 0.943-0.391zM4 22.667h24q0.552 0 0.943 0.391t0.391 0.943-0.391 0.943-0.943 0.391h-24q-0.552 0-0.943-0.391t-0.391-0.943 0.391-0.943 0.943-0.391zM4 14.667h24q0.552 0 0.943 0.391t0.391 0.943-0.391 0.943-0.943 0.391h-24q-0.552 0-0.943-0.391t-0.391-0.943 0.391-0.943 0.943-0.391z"></path>
</symbol>
<symbol id="icon-inbox" viewBox="0 0 32 32">
<title>inbox</title>
<path d="M16 1.333q0.552 0 0.943 0.391t0.391 0.943v15.448l4.385-4.396q0.385-0.385 0.948-0.385 0.573 0 0.953 0.38t0.38 0.953q0 0.563-0.385 0.948l-6.667 6.667q-0.385 0.385-0.948 0.385t-0.948-0.385l-6.667-6.667q-0.385-0.406-0.385-0.948 0-0.552 0.391-0.943t0.943-0.391q0.563 0 0.948 0.385l4.385 4.396v-15.448q0-0.552 0.391-0.943t0.943-0.391zM29.333 20q0.552 0 0.943 0.391t0.391 0.943v5.333q0 1.667-1.156 2.823-1.177 1.177-2.813 1.177h-21.365q-1.635 0-2.833-1.167-1.167-1.198-1.167-2.833v-5.333q0-0.552 0.391-0.943t0.943-0.391 0.943 0.391 0.391 0.943v5.333q0 0.552 0.391 0.943t0.943 0.391h21.365q0.542 0 0.922-0.391t0.38-0.943v-5.333q0-0.552 0.391-0.943t0.943-0.391z"></path>
</symbol>
<symbol id="icon-file" viewBox="0 0 32 32">
<title>file</title>
<path d="M6.667 0h13.333l9.333 9.333v18.667q0 1.656-1.172 2.828t-2.828 1.172h-18.667q-1.656 0-2.828-1.172t-1.172-2.828v-24q0-1.656 1.172-2.828t2.828-1.172zM17.333 12v-9.333h-10.667q-0.563 0-0.948 0.385t-0.385 0.948v24q0 0.563 0.385 0.948t0.948 0.385h18.667q0.563 0 0.948-0.385t0.385-0.948v-16h-9.333zM25.563 9.333l-5.563-5.563v5.563h5.563z"></path>
</symbol>
<symbol id="icon-open" viewBox="0 0 32 32">
<title>open</title>
<path d="M5.333 1.333h9.333q0.552 0 0.943 0.391t0.391 0.943-0.391 0.943-0.943 0.391h-9.333q-0.552 0-0.943 0.391t-0.391 0.943v21.333q0 0.552 0.391 0.943t0.943 0.391h21.333q0.552 0 0.943-0.391t0.391-0.943v-9.333q0-0.552 0.391-0.943t0.943-0.391 0.943 0.391 0.391 0.943v9.333q0 1.656-1.172 2.828t-2.828 1.172h-21.333q-1.656 0-2.828-1.172t-1.172-2.828v-21.333q0-1.656 1.172-2.828t2.828-1.172zM21.333 1.333h8q0.552 0 0.943 0.391t0.391 0.943v8q0 0.552-0.391 0.943t-0.943 0.391-0.943-0.391-0.391-0.943v-4.781l-11.063 11.063q-0.385 0.385-0.938 0.385-0.573 0-0.953-0.38t-0.38-0.953q0-0.552 0.385-0.938l11.063-11.063h-4.781q-0.552 0-0.943-0.391t-0.391-0.943 0.391-0.943 0.943-0.391z"></path>
</symbol>
</defs>
</svg>
