<svg version="1.1" xmlns="http://www.w3.org/2000/svg" xmlns:xlink="http://www.w3.org/1999/xlink" width="624" height="104" viewBox="0 0 624 104">
<svg id="icon-keyboard_arrow_down" width="24" height="24" viewBox="0 0 24 24" x="0" y="0">
<path d="M7.406 7.828l4.594 4.594 4.594-4.594 1.406 1.406-6 6-6-6z"></path>
</svg>
<svg id="icon-keyboard_arrow_left" width="24" height="24" viewBox="0 0 24 24" x="40" y="0">
<path d="M15.422 16.078l-1.406 1.406-6-6 6-6 1.406 1.406-4.594 4.594z"></path>
</svg>
<svg id="icon-keyboard_arrow_right" width="24" height="24" viewBox="0 0 24 24" x="80" y="0">
<path d="M8.578 16.359l4.594-4.594-4.594-4.594 1.406-1.406 6 6-6 6z"></path>
</svg>
<svg id="icon-keyboard_arrow_up" width="24" height="24" viewBox="0 0 24 24" x="120" y="0">
<path d="M7.406 15.422l-1.406-1.406 6-6 6 6-1.406 1.406-4.594-4.594z"></path>
</svg>
<svg id="icon-link" width="24" height="24" viewBox="0 0 24 24" x="160" y="0">
<path d="M17 1q1.18 0 2.277 0.445t1.965 1.312 1.313 1.965 0.445 2.277q0 1.172-0.449 2.277t-1.309 1.965l-3 3q-0.086 0.086-0.258 0.242-0.836 0.742-1.867 1.129t-2.117 0.387q-1.367 0-2.586-0.586-0.914-0.43-1.656-1.172t-1.172-1.656q0.586-0.586 1.414-0.586 0.289 0 0.586 0.086 0.508 0.82 1.328 1.328 0.961 0.586 2.086 0.586 0.781 0 1.516-0.297t1.313-0.875l3-3q0.578-0.578 0.875-1.313t0.297-1.516-0.297-1.516-0.875-1.313-1.313-0.875-1.516-0.297-1.516 0.297-1.313 0.875l-2.102 2.102q-1-0.273-2.070-0.273-0.172 0-0.484 0.016 0.156-0.172 0.242-0.258l3-3q0.859-0.859 1.965-1.309t2.277-0.449zM10 8q1.367 0 2.586 0.586 0.914 0.43 1.656 1.172t1.172 1.656q-0.586 0.586-1.414 0.586-0.289 0-0.586-0.086-0.508-0.82-1.328-1.328-0.961-0.586-2.086-0.586-0.781 0-1.516 0.297t-1.313 0.875l-3 3q-0.578 0.578-0.875 1.313t-0.297 1.516 0.297 1.516 0.875 1.313 1.313 0.875 1.516 0.297 1.516-0.297 1.313-0.875l2.102-2.102q1 0.273 2.070 0.273 0.172 0 0.484-0.016-0.156 0.172-0.242 0.258l-3 3q-0.867 0.867-1.965 1.313t-2.277 0.445q-1.172 0-2.277-0.449t-1.965-1.309q-0.867-0.867-1.313-1.965t-0.445-2.277 0.445-2.277 1.313-1.965l3-3q0.086-0.086 0.258-0.242 0.836-0.742 1.867-1.129t2.117-0.387z"></path>
</svg>
<svg id="icon-target" width="24" height="24" viewBox="0 0 24 24" x="200" y="0">
<path d="M12 1q2.242 0 4.277 0.871t3.508 2.344 2.344 3.508 0.871 4.277-0.871 4.277-2.344 3.508-3.508 2.344-4.277 0.871-4.277-0.871-3.508-2.344-2.344-3.508-0.871-4.277 0.871-4.277 2.344-3.508 3.508-2.344 4.277-0.871zM12 3q-1.828 0-3.496 0.715t-2.871 1.918-1.918 2.871-0.715 3.496 0.715 3.496 1.918 2.871 2.871 1.918 3.496 0.715 3.496-0.715 2.871-1.918 1.918-2.871 0.715-3.496-0.715-3.496-1.918-2.871-2.871-1.918-3.496-0.715zM12 5q1.422 0 2.719 0.555t2.234 1.492 1.492 2.234 0.555 2.719-0.555 2.719-1.492 2.234-2.234 1.492-2.719 0.555-2.719-0.555-2.234-1.492-1.492-2.234-0.555-2.719 0.555-2.719 1.492-2.234 2.234-1.492 2.719-0.555zM12 7q-1.016 0-1.941 0.398t-1.594 1.066-1.066 1.594-0.398 1.941 0.398 1.941 1.066 1.594 1.594 1.066 1.941 0.398 1.941-0.398 1.594-1.066 1.066-1.594 0.398-1.941-0.398-1.941-1.066-1.594-1.594-1.066-1.941-0.398zM12 9q1.242 0 2.121 0.879t0.879 2.121-0.879 2.121-2.121 0.879-2.121-0.879-0.879-2.121 0.879-2.121 2.121-0.879zM12 11q-0.414 0-0.707 0.293t-0.293 0.707 0.293 0.707 0.707 0.293 0.707-0.293 0.293-0.707-0.293-0.707-0.707-0.293z"></path>
</svg>
<svg id="icon-cog" width="24" height="24" viewBox="0 0 24 24" x="240" y="0">
<path d="M12 0q1.242 0 2.121 0.879t0.879 2.121v0.516q0.367 0.125 0.883 0.359l0.359-0.359q0.883-0.883 2.125-0.883 1.234 0 2.117 0.883t0.883 2.117q0 1.242-0.883 2.125l-0.359 0.359q0.234 0.516 0.359 0.883h0.516q1.242 0 2.121 0.879t0.879 2.121-0.879 2.121-2.121 0.879h-0.516q-0.125 0.367-0.359 0.883l0.359 0.359q0.883 0.883 0.883 2.125 0 1.234-0.883 2.117t-2.117 0.883q-1.242 0-2.125-0.883l-0.359-0.359q-0.516 0.234-0.883 0.359v0.516q0 1.242-0.879 2.121t-2.121 0.879-2.121-0.879-0.879-2.121v-0.516q-0.367-0.125-0.883-0.359l-0.359 0.359q-0.883 0.883-2.117 0.883-1.242 0-2.121-0.883t-0.879-2.117q0-1.25 0.875-2.125l0.359-0.359q-0.234-0.516-0.359-0.883h-0.516q-1.242 0-2.121-0.879t-0.879-2.121 0.879-2.121 2.121-0.879h0.516q0.125-0.367 0.359-0.883l-0.359-0.359q-0.875-0.875-0.875-2.125 0-1.234 0.879-2.117t2.121-0.883q1.234 0 2.117 0.883l0.359 0.359q0.516-0.234 0.883-0.359v-0.516q0-1.242 0.879-2.121t2.121-0.879zM12 2q-0.414 0-0.707 0.293t-0.293 0.707v2.070q-1.75 0.25-3.195 1.32l-1.461-1.461q-0.297-0.297-0.703-0.297-0.414 0-0.707 0.293t-0.293 0.707q0 0.422 0.289 0.711l1.461 1.461q-1.070 1.445-1.32 3.195h-2.070q-0.414 0-0.707 0.293t-0.293 0.707 0.293 0.707 0.707 0.293h2.070q0.25 1.75 1.32 3.195l-1.461 1.461q-0.289 0.289-0.289 0.711 0 0.414 0.293 0.707t0.707 0.293q0.406 0 0.703-0.297l1.461-1.461q1.445 1.070 3.195 1.32v2.070q0 0.414 0.293 0.707t0.707 0.293 0.707-0.293 0.293-0.707v-2.070q1.75-0.25 3.195-1.32l1.461 1.461q0.297 0.297 0.711 0.297t0.707-0.293 0.293-0.707-0.297-0.711l-1.461-1.461q1.070-1.445 1.32-3.195h2.070q0.414 0 0.707-0.293t0.293-0.707-0.293-0.707-0.707-0.293h-2.070q-0.25-1.75-1.32-3.195l1.461-1.461q0.297-0.297 0.297-0.711t-0.293-0.707-0.707-0.293-0.711 0.297l-1.461 1.461q-1.445-1.070-3.195-1.32v-2.070q0-0.414-0.293-0.707t-0.707-0.293zM12 8q1.656 0 2.828 1.172t1.172 2.828-1.172 2.828-2.828 1.172-2.828-1.172-1.172-2.828 1.172-2.828 2.828-1.172zM12 10q-0.828 0-1.414 0.586t-0.586 1.414 0.586 1.414 1.414 0.586 1.414-0.586 0.586-1.414-0.586-1.414-1.414-0.586z"></path>
</svg>
<svg id="icon-heart" width="24" height="24" viewBox="0 0 24 24" x="280" y="0">
<path d="M17.656 2q1.633 0 3.012 0.805t2.184 2.184 0.805 3.012q0 1.172-0.449 2.277t-1.309 1.965l-9.898 9.898-9.898-9.898q-0.859-0.859-1.309-1.965t-0.449-2.277q0-1.633 0.805-3.012t2.184-2.184 3.012-0.805q1.18 0 2.277 0.445t1.965 1.313l1.414 1.414 1.414-1.414q0.859-0.859 1.965-1.309t2.277-0.449zM17.656 4q-0.781 0-1.516 0.297t-1.312 0.875l-2.828 2.828-2.828-2.828q-0.578-0.578-1.313-0.875t-1.516-0.297q-1.094 0-2.012 0.535t-1.453 1.453-0.535 2.012q0 0.781 0.297 1.516t0.875 1.313l8.484 8.484 8.484-8.484q0.578-0.578 0.875-1.313t0.297-1.516q0-1.094-0.535-2.012t-1.453-1.453-2.012-0.535z"></path>
</svg>
<svg id="icon-layers" width="24" height="24" viewBox="0 0 24 24" x="320" y="0">
<path d="M0 7l12-6 12 6-12 6zM12 19.258l9.75-4.883 2.25 1.125-12 6.008-12-6.008 2.25-1.125zM12 15.008l9.75-4.875 2.25 1.125-12 6-12-6 2.25-1.125zM19.531 7l-7.531-3.766-7.531 3.766 7.531 3.766z"></path>
</svg>
<svg id="icon-search" width="24" height="24" viewBox="0 0 24 24" x="360" y="0">
<path d="M10 1q1.828 0 3.496 0.715t2.871 1.918 1.918 2.871 0.715 3.496q0 1.57-0.512 3.008t-1.457 2.609l5.68 5.672q0.289 0.289 0.289 0.711 0 0.43-0.285 0.715t-0.715 0.285q-0.422 0-0.711-0.289l-5.672-5.68q-1.172 0.945-2.609 1.457t-3.008 0.512q-1.828 0-3.496-0.715t-2.871-1.918-1.918-2.871-0.715-3.496 0.715-3.496 1.918-2.871 2.871-1.918 3.496-0.715zM10 3q-1.422 0-2.719 0.555t-2.234 1.492-1.492 2.234-0.555 2.719 0.555 2.719 1.492 2.234 2.234 1.492 2.719 0.555 2.719-0.555 2.234-1.492 1.492-2.234 0.555-2.719-0.555-2.719-1.492-2.234-2.234-1.492-2.719-0.555z"></path>
</svg>
<svg id="icon-zoom-in" width="24" height="24" viewBox="0 0 24 24" x="400" y="0">
<path d="M10 1q1.828 0 3.496 0.715t2.871 1.918 1.918 2.871 0.715 3.496q0 1.57-0.512 3.008t-1.457 2.609l5.68 5.672q0.289 0.289 0.289 0.711 0 0.43-0.285 0.715t-0.715 0.285q-0.422 0-0.711-0.289l-5.672-5.68q-1.172 0.945-2.609 1.457t-3.008 0.512q-1.828 0-3.496-0.715t-2.871-1.918-1.918-2.871-0.715-3.496 0.715-3.496 1.918-2.871 2.871-1.918 3.496-0.715zM10 3q-1.422 0-2.719 0.555t-2.234 1.492-1.492 2.234-0.555 2.719 0.555 2.719 1.492 2.234 2.234 1.492 2.719 0.555 2.719-0.555 2.234-1.492 1.492-2.234 0.555-2.719-0.555-2.719-1.492-2.234-2.234-1.492-2.719-0.555zM10 6q0.414 0 0.707 0.293t0.293 0.707v2h2q0.414 0 0.707 0.293t0.293 0.707-0.293 0.707-0.707 0.293h-2v2q0 0.414-0.293 0.707t-0.707 0.293-0.707-0.293-0.293-0.707v-2h-2q-0.414 0-0.707-0.293t-0.293-0.707 0.293-0.707 0.707-0.293h2v-2q0-0.414 0.293-0.707t0.707-0.293z"></path>
</svg>
<svg id="icon-zoom-out" width="24" height="24" viewBox="0 0 24 24" x="440" y="0">
<path d="M10 1q1.828 0 3.496 0.715t2.871 1.918 1.918 2.871 0.715 3.496q0 1.57-0.512 3.008t-1.457 2.609l5.68 5.672q0.289 0.289 0.289 0.711 0 0.43-0.285 0.715t-0.715 0.285q-0.422 0-0.711-0.289l-5.672-5.68q-1.172 0.945-2.609 1.457t-3.008 0.512q-1.828 0-3.496-0.715t-2.871-1.918-1.918-2.871-0.715-3.496 0.715-3.496 1.918-2.871 2.871-1.918 3.496-0.715zM10 3q-1.422 0-2.719 0.555t-2.234 1.492-1.492 2.234-0.555 2.719 0.555 2.719 1.492 2.234 2.234 1.492 2.719 0.555 2.719-0.555 2.234-1.492 1.492-2.234 0.555-2.719-0.555-2.719-1.492-2.234-2.234-1.492-2.719-0.555zM7 9h6q0.414 0 0.707 0.293t0.293 0.707-0.293 0.707-0.707 0.293h-6q-0.414 0-0.707-0.293t-0.293-0.707 0.293-0.707 0.707-0.293z"></path>
</svg>
<svg id="icon-circle-plus" width="24" height="24" viewBox="0 0 24 24" x="480" y="0">
<path d="M12 1q2.242 0 4.277 0.871t3.508 2.344 2.344 3.508 0.871 4.277-0.871 4.277-2.344 3.508-3.508 2.344-4.277 0.871-4.277-0.871-3.508-2.344-2.344-3.508-0.871-4.277 0.871-4.277 2.344-3.508 3.508-2.344 4.277-0.871zM12 3q-1.828 0-3.496 0.715t-2.871 1.918-1.918 2.871-0.715 3.496 0.715 3.496 1.918 2.871 2.871 1.918 3.496 0.715 3.496-0.715 2.871-1.918 1.918-2.871 0.715-3.496-0.715-3.496-1.918-2.871-2.871-1.918-3.496-0.715zM12 7q0.414 0 0.707 0.293t0.293 0.707v3h3q0.414 0 0.707 0.293t0.293 0.707-0.293 0.707-0.707 0.293h-3v3q0 0.414-0.293 0.707t-0.707 0.293-0.707-0.293-0.293-0.707v-3h-3q-0.414 0-0.707-0.293t-0.293-0.707 0.293-0.707 0.707-0.293h3v-3q0-0.414 0.293-0.707t0.707-0.293z"></path>
</svg>
<svg id="icon-circle-minus" width="24" height="24" viewBox="0 0 24 24" x="520" y="0">
<path d="M12 1q2.242 0 4.277 0.871t3.508 2.344 2.344 3.508 0.871 4.277-0.871 4.277-2.344 3.508-3.508 2.344-4.277 0.871-4.277-0.871-3.508-2.344-2.344-3.508-0.871-4.277 0.871-4.277 2.344-3.508 3.508-2.344 4.277-0.871zM12 3q-1.828 0-3.496 0.715t-2.871 1.918-1.918 2.871-0.715 3.496 0.715 3.496 1.918 2.871 2.871 1.918 3.496 0.715 3.496-0.715 2.871-1.918 1.918-2.871 0.715-3.496-0.715-3.496-1.918-2.871-2.871-1.918-3.496-0.715zM8 11h8q0.414 0 0.707 0.293t0.293 0.707-0.293 0.707-0.707 0.293h-8q-0.414 0-0.707-0.293t-0.293-0.707 0.293-0.707 0.707-0.293z"></path>
</svg>
<svg id="icon-circle-check" width="24" height="24" viewBox="0 0 24 24" x="560" y="0">
<path d="M12 1q2.242 0 4.277 0.871t3.508 2.344 2.344 3.508 0.871 4.277-0.871 4.277-2.344 3.508-3.508 2.344-4.277 0.871-4.277-0.871-3.508-2.344-2.344-3.508-0.871-4.277 0.871-4.277 2.344-3.508 3.508-2.344 4.277-0.871zM12 3q-1.828 0-3.496 0.715t-2.871 1.918-1.918 2.871-0.715 3.496 0.715 3.496 1.918 2.871 2.871 1.918 3.496 0.715 3.496-0.715 2.871-1.918 1.918-2.871 0.715-3.496-0.715-3.496-1.918-2.871-2.871-1.918-3.496-0.715zM15.367 8.992q0.414 0 0.707 0.293t0.293 0.707-0.297 0.711l-4.242 4.242q-0.289 0.289-0.703 0.289-0.422 0-0.711-0.289l-2.125-2.117q-0.289-0.289-0.289-0.711 0-0.414 0.293-0.707t0.707-0.293 0.711 0.297l1.414 1.414 3.531-3.539q0.297-0.297 0.711-0.297z"></path>
</svg>
<svg id="icon-circle-cross" width="24" height="24" viewBox="0 0 24 24" x="600" y="0">
<path d="M12 1q2.242 0 4.277 0.871t3.508 2.344 2.344 3.508 0.871 4.277-0.871 4.277-2.344 3.508-3.508 2.344-4.277 0.871-4.277-0.871-3.508-2.344-2.344-3.508-0.871-4.277 0.871-4.277 2.344-3.508 3.508-2.344 4.277-0.871zM12 3q-1.828 0-3.496 0.715t-2.871 1.918-1.918 2.871-0.715 3.496 0.715 3.496 1.918 2.871 2.871 1.918 3.496 0.715 3.496-0.715 2.871-1.918 1.918-2.871 0.715-3.496-0.715-3.496-1.918-2.871-2.871-1.918-3.496-0.715zM14.828 8.164q0.414 0 0.711 0.293t0.297 0.707-0.297 0.711l-2.125 2.125 2.125 2.117q0.297 0.297 0.297 0.703 0 0.414-0.297 0.707t-0.711 0.293-0.703-0.289l-2.125-2.117-2.117 2.117q-0.289 0.289-0.711 0.289-0.414 0-0.707-0.289t-0.293-0.703q0-0.422 0.289-0.711l2.125-2.117-2.125-2.125q-0.289-0.289-0.289-0.703t0.293-0.711 0.707-0.297 0.711 0.297l2.117 2.125 2.125-2.125q0.297-0.297 0.703-0.297z"></path>
</svg>
<svg id="icon-square-plus" width="24" height="24" viewBox="0 0 24 24" x="0" y="40">
<path d="M4 1h16q1.242 0 2.121 0.879t0.879 2.121v16q0 1.242-0.879 2.121t-2.121 0.879h-16q-1.242 0-2.121-0.879t-0.879-2.121v-16q0-1.242 0.879-2.121t2.121-0.879zM20 3h-16q-0.414 0-0.707 0.293t-0.293 0.707v16q0 0.414 0.293 0.707t0.707 0.293h16q0.414 0 0.707-0.293t0.293-0.707v-16q0-0.414-0.293-0.707t-0.707-0.293zM12 7q0.414 0 0.707 0.293t0.293 0.707v3h3q0.414 0 0.707 0.293t0.293 0.707-0.293 0.707-0.707 0.293h-3v3q0 0.414-0.293 0.707t-0.707 0.293-0.707-0.293-0.293-0.707v-3h-3q-0.414 0-0.707-0.293t-0.293-0.707 0.293-0.707 0.707-0.293h3v-3q0-0.414 0.293-0.707t0.707-0.293z"></path>
</svg>
<svg id="icon-square-minus" width="24" height="24" viewBox="0 0 24 24" x="40" y="40">
<path d="M4 1h16q1.242 0 2.121 0.879t0.879 2.121v16q0 1.242-0.879 2.121t-2.121 0.879h-16q-1.242 0-2.121-0.879t-0.879-2.121v-16q0-1.242 0.879-2.121t2.121-0.879zM20 3h-16q-0.414 0-0.707 0.293t-0.293 0.707v16q0 0.414 0.293 0.707t0.707 0.293h16q0.414 0 0.707-0.293t0.293-0.707v-16q0-0.414-0.293-0.707t-0.707-0.293zM8 11h8q0.414 0 0.707 0.293t0.293 0.707-0.293 0.707-0.707 0.293h-8q-0.414 0-0.707-0.293t-0.293-0.707 0.293-0.707 0.707-0.293z"></path>
</svg>
<svg id="icon-square-check" width="24" height="24" viewBox="0 0 24 24" x="80" y="40">
<path d="M4 1h16q1.242 0 2.121 0.879t0.879 2.121v16q0 1.242-0.879 2.121t-2.121 0.879h-16q-1.242 0-2.121-0.879t-0.879-2.121v-16q0-1.242 0.879-2.121t2.121-0.879zM20 3h-16q-0.414 0-0.707 0.293t-0.293 0.707v16q0 0.414 0.293 0.707t0.707 0.293h16q0.414 0 0.707-0.293t0.293-0.707v-16q0-0.414-0.293-0.707t-0.707-0.293zM16 8.523q0.406 0 0.703 0.293t0.297 0.707-0.297 0.711l-4.945 4.945q-0.289 0.289-0.703 0.289-0.422 0-0.711-0.289l-2.828-2.828q-0.289-0.289-0.289-0.711 0-0.414 0.293-0.707t0.707-0.293q0.406 0 0.703 0.297l2.117 2.125 4.242-4.242q0.297-0.297 0.711-0.297z"></path>
</svg>
<svg id="icon-square-cross" width="24" height="24" viewBox="0 0 24 24" x="120" y="40">
<path d="M4 1h16q1.242 0 2.121 0.879t0.879 2.121v16q0 1.242-0.879 2.121t-2.121 0.879h-16q-1.242 0-2.121-0.879t-0.879-2.121v-16q0-1.242 0.879-2.121t2.121-0.879zM20 3h-16q-0.414 0-0.707 0.293t-0.293 0.707v16q0 0.414 0.293 0.707t0.707 0.293h16q0.414 0 0.707-0.293t0.293-0.707v-16q0-0.414-0.293-0.707t-0.707-0.293zM14.828 8.164q0.414 0 0.711 0.297t0.297 0.711-0.297 0.711l-2.125 2.117 2.125 2.117q0.297 0.297 0.297 0.711t-0.297 0.707-0.711 0.293-0.703-0.289l-2.125-2.125-2.125 2.125q-0.281 0.289-0.703 0.289-0.43 0-0.715-0.285t-0.285-0.715q0-0.422 0.289-0.711l2.125-2.117-2.125-2.117q-0.289-0.289-0.289-0.711 0-0.414 0.293-0.711t0.707-0.297q0.422 0 0.703 0.297l2.125 2.125 2.125-2.125q0.297-0.297 0.703-0.297z"></path>
</svg>
<svg id="icon-repeat" width="24" height="24" viewBox="0 0 24 24" x="160" y="40">
<path d="M1 13h6q0.414 0 0.707 0.293t0.293 0.707-0.293 0.707-0.707 0.293h-3.375l2.719 2.656q1.156 1.164 2.648 1.758 1.43 0.586 3.008 0.586t3.008-0.586q0.781-0.32 1.465-0.785t1.164-0.953 0.875-1.047 0.633-1.027 0.402-0.938q0.141-0.391 0.516-0.566t0.758-0.043q0.391 0.141 0.566 0.512t0.043 0.754q-0.328 1-0.953 1.984t-1.406 1.766q-1.437 1.437-3.305 2.195-1.812 0.734-3.766 0.734-1.945 0-3.766-0.734-1.867-0.758-3.305-2.195l-2.93-2.867v3.797q0 0.414-0.293 0.707t-0.707 0.293-0.707-0.293-0.293-0.707v-6q0-0.414 0.293-0.707t0.707-0.293zM12 2q1.945 0 3.766 0.734 1.867 0.758 3.305 2.195l0.016 0.016 2.914 2.852v-3.797q0-0.414 0.293-0.707t0.707-0.293 0.707 0.293 0.293 0.707v6q0 0.414-0.293 0.707t-0.707 0.293h-6q-0.414 0-0.707-0.293t-0.293-0.707 0.293-0.707 0.707-0.293h3.375l-2.719-2.656q-1.141-1.141-2.598-1.742t-3.059-0.602q-1.578 0-3.008 0.586-1.492 0.594-2.648 1.758-0.469 0.414-1.027 1.262t-0.863 1.73q-0.141 0.391-0.516 0.566t-0.758 0.043q-0.391-0.141-0.566-0.512t-0.043-0.754q0.328-1 0.953-1.984t1.406-1.766q1.437-1.437 3.305-2.195 1.82-0.734 3.766-0.734z"></path>
</svg>
<svg id="icon-location-2" width="24" height="24" viewBox="0 0 24 24" x="200" y="40">
<path d="M12 1q2.242 0 4.277 0.871t3.508 2.344 2.344 3.508 0.871 4.277-0.871 4.277-2.344 3.508-3.508 2.344-4.277 0.871-4.277-0.871-3.508-2.344-2.344-3.508-0.871-4.277 0.871-4.277 2.344-3.508 3.508-2.344 4.277-0.871zM13 3.055v2.945q0 0.414-0.293 0.707t-0.707 0.293-0.707-0.293-0.293-0.707v-2.945q-1.547 0.172-2.934 0.852t-2.434 1.727-1.727 2.434-0.852 2.934h2.945q0.414 0 0.707 0.293t0.293 0.707-0.293 0.707-0.707 0.293h-2.945q0.172 1.547 0.852 2.934t1.727 2.434 2.434 1.727 2.934 0.852v-2.945q0-0.414 0.293-0.707t0.707-0.293 0.707 0.293 0.293 0.707v2.945q1.547-0.172 2.934-0.852t2.434-1.727 1.727-2.434 0.852-2.934h-2.945q-0.414 0-0.707-0.293t-0.293-0.707 0.293-0.707 0.707-0.293h2.945q-0.172-1.547-0.852-2.934t-1.727-2.434-2.434-1.727-2.934-0.852z"></path>
</svg>
<svg id="icon-map" width="24" height="24" viewBox="0 0 24 24" x="240" y="40">
<path d="M16 5l8-5v19l-8 5-8-5-8 5v-19l8-5zM7 17.266v-14.273l-5 3.125v14.273zM15 6.734l-6-3.758v14.289l6 3.75v-14.281zM22 17.891v-14.281l-5 3.125v14.281z"></path>
</svg>
<svg id="icon-speech-bubble" width="24" height="24" viewBox="0 0 24 24" x="280" y="40">
<path d="M4 1h16q1.242 0 2.121 0.879t0.879 2.121v11q0 1.242-0.879 2.121t-2.121 0.879h-8l-7 5v-5h-1q-1.242 0-2.121-0.879t-0.879-2.121v-11q0-1.242 0.879-2.121t2.121-0.879zM20 3h-16q-0.414 0-0.707 0.293t-0.293 0.707v11q0 0.414 0.293 0.707t0.707 0.293h3v3.117l4.359-3.117h8.641q0.414 0 0.707-0.293t0.293-0.707v-11q0-0.414-0.293-0.707t-0.707-0.293z"></path>
</svg>
<svg id="icon-globe" width="24" height="24" viewBox="0 0 24 24" x="320" y="40">
<path d="M12 1q0.281 0 0.422 0.008 1.453 0.055 2.824 0.48t2.535 1.145 2.137 1.73 1.648 2.199 1.055 2.582 0.379 2.855-0.379 2.855-1.055 2.582-1.648 2.199-2.137 1.73-2.535 1.145-2.824 0.48q-0.141 0.008-0.422 0.008t-0.422-0.008q-1.453-0.055-2.824-0.48t-2.535-1.145-2.137-1.73-1.648-2.199-1.055-2.582-0.379-2.855 0.379-2.855 1.055-2.582 1.648-2.199 2.137-1.73 2.535-1.145 2.824-0.48q0.141-0.008 0.422-0.008zM7.039 13h-3.984q0.312 2.789 2.148 4.898t4.516 2.813q-1.016-1.539-1.77-3.488t-0.91-4.223zM14.961 13h-5.922q0.078 1 0.324 2t0.551 1.77 0.703 1.52 0.719 1.234 0.664 0.93q0.344-0.445 0.664-0.934t0.719-1.238 0.703-1.52 0.551-1.766 0.324-1.996zM9.719 3.289q-2.68 0.703-4.516 2.812t-2.148 4.898h3.984q0.273-4.078 2.68-7.711zM20.945 13h-3.977q-0.289 4.086-2.688 7.711 2.68-0.703 4.516-2.813t2.148-4.898zM12 3.547q-0.344 0.445-0.66 0.934t-0.719 1.238-0.707 1.52-0.551 1.766-0.324 1.996h5.922q-0.078-1-0.324-2t-0.551-1.77-0.703-1.52-0.719-1.234-0.664-0.93zM14.281 3.289q2.398 3.625 2.688 7.711h3.977q-0.312-2.789-2.148-4.898t-4.516-2.813z"></path>
</svg>
<svg id="icon-star" width="24" height="24" viewBox="0 0 24 24" x="360" y="40">
<path d="M9.297 9l2.703-8.32 2.703 8.32h8.75l-7.078 4.914 2.703 8.172-7.078-5.18-7.078 5.141 2.703-8.133-7.078-4.914h8.75zM13.25 11l-1.25-3.977-1.25 3.977h-3.883l3.125 2.070-1.227 3.695 3.242-2.344 3.227 2.367-1.227-3.695 3.117-2.094h-3.875z"></path>
</svg>
<svg id="icon-arrow-left" width="24" height="24" viewBox="0 0 24 24" x="400" y="40">
<path d="M10 4q0.414 0 0.707 0.293t0.293 0.707q0 0.422-0.297 0.711l-5.289 5.289h15.586q0.414 0 0.707 0.293t0.293 0.707-0.293 0.707-0.707 0.293h-15.586l5.289 5.289q0.297 0.289 0.297 0.711 0 0.414-0.293 0.707t-0.707 0.293q-0.422 0-0.711-0.289l-7-7q-0.289-0.305-0.289-0.711t0.289-0.711l7-7q0.297-0.289 0.711-0.289z"></path>
</svg>
<svg id="icon-arrow-right" width="24" height="24" viewBox="0 0 24 24" x="440" y="40">
<path d="M14 4q0.422 0 0.711 0.289l7 7q0.289 0.289 0.289 0.711t-0.289 0.711l-7 7q-0.289 0.289-0.711 0.289-0.43 0-0.715-0.285t-0.285-0.715q0-0.422 0.289-0.711l5.297-5.289h-15.586q-0.414 0-0.707-0.293t-0.293-0.707 0.293-0.707 0.707-0.293h15.586l-5.297-5.289q-0.289-0.289-0.289-0.711 0-0.43 0.285-0.715t0.715-0.285z"></path>
</svg>
<svg id="icon-arrow-up" width="24" height="24" viewBox="0 0 24 24" x="480" y="40">
<path d="M12 2q0.422 0 0.711 0.289l7 7q0.289 0.289 0.289 0.711 0 0.43-0.285 0.715t-0.715 0.285q-0.422 0-0.711-0.289l-5.289-5.297v15.586q0 0.414-0.293 0.707t-0.707 0.293-0.707-0.293-0.293-0.707v-15.586l-5.289 5.297q-0.289 0.289-0.711 0.289-0.43 0-0.715-0.285t-0.285-0.715q0-0.422 0.289-0.711l7-7q0.289-0.289 0.711-0.289z"></path>
</svg>
<svg id="icon-arrow-down" width="24" height="24" viewBox="0 0 24 24" x="520" y="40">
<path d="M12 2q0.414 0 0.707 0.293t0.293 0.707v15.586l5.289-5.297q0.289-0.289 0.711-0.289 0.43 0 0.715 0.285t0.285 0.715q0 0.422-0.289 0.711l-7 7q-0.289 0.289-0.711 0.289t-0.711-0.289l-7-7q-0.289-0.289-0.289-0.711 0-0.43 0.285-0.715t0.715-0.285q0.422 0 0.711 0.289l5.289 5.297v-15.586q0-0.414 0.293-0.707t0.707-0.293z"></path>
</svg>
<svg id="icon-maximize" width="24" height="24" viewBox="0 0 24 24" x="560" y="40">
<path d="M14 12.992q0.414 0 0.711 0.297l6.289 6.289v-4.586q0-0.414 0.293-0.707t0.707-0.293 0.707 0.293 0.293 0.707v7q0 0.414-0.297 0.711t-0.711 0.297h-7q-0.414 0-0.707-0.293t-0.293-0.707 0.293-0.707 0.707-0.293h4.586l-6.289-6.289q-0.289-0.305-0.289-0.711 0-0.414 0.293-0.711t0.707-0.297zM2 1h7q0.414 0 0.707 0.293t0.293 0.707-0.293 0.707-0.707 0.293h-4.586l6.289 6.281q0.297 0.297 0.297 0.711t-0.297 0.707-0.711 0.293q-0.398 0-0.711-0.289l-6.281-6.289v4.586q0 0.414-0.293 0.707t-0.707 0.293-0.707-0.293-0.293-0.707v-7q0-0.414 0.293-0.707t0.707-0.293z"></path>
</svg>
<svg id="icon-plus" width="24" height="24" viewBox="0 0 24 24" x="600" y="40">
<path d="M12 2q0.414 0 0.707 0.293t0.293 0.707v8h8q0.414 0 0.707 0.293t0.293 0.707-0.293 0.707-0.707 0.293h-8v8q0 0.414-0.293 0.707t-0.707 0.293-0.707-0.293-0.293-0.707v-8h-8q-0.414 0-0.707-0.293t-0.293-0.707 0.293-0.707 0.707-0.293h8v-8q0-0.414 0.293-0.707t0.707-0.293z"></path>
</svg>
<svg id="icon-minus" width="24" height="24" viewBox="0 0 24 24" x="0" y="80">
<path d="M3 11h18q0.414 0 0.707 0.293t0.293 0.707-0.293 0.707-0.707 0.293h-18q-0.414 0-0.707-0.293t-0.293-0.707 0.293-0.707 0.707-0.293z"></path>
</svg>
<svg id="icon-check" width="24" height="24" viewBox="0 0 24 24" x="40" y="80">
<path d="M21 5q0.43 0 0.715 0.285t0.285 0.715q0 0.422-0.289 0.711l-12 12q-0.289 0.289-0.711 0.289t-0.711-0.289l-6-6q-0.289-0.289-0.289-0.711 0-0.43 0.285-0.715t0.715-0.285q0.422 0 0.711 0.289l5.289 5.297 11.289-11.297q0.289-0.289 0.711-0.289z"></path>
</svg>
<svg id="icon-cross" width="24" height="24" viewBox="0 0 24 24" x="80" y="80">
<path d="M19 4q0.43 0 0.715 0.285t0.285 0.715q0 0.422-0.289 0.711l-6.297 6.289 6.297 6.289q0.289 0.289 0.289 0.711 0 0.43-0.285 0.715t-0.715 0.285q-0.422 0-0.711-0.289l-6.289-6.297-6.289 6.297q-0.289 0.289-0.711 0.289-0.43 0-0.715-0.285t-0.285-0.715q0-0.422 0.289-0.711l6.297-6.289-6.297-6.289q-0.289-0.289-0.289-0.711 0-0.43 0.285-0.715t0.715-0.285q0.422 0 0.711 0.289l6.289 6.297 6.289-6.297q0.289-0.289 0.711-0.289z"></path>
</svg>
<svg id="icon-delete" width="24" height="24" viewBox="0 0 24 24" x="120" y="80">
<path d="M8 3h13q1.242 0 2.121 0.879t0.879 2.121v12q0 1.242-0.879 2.121t-2.121 0.879h-13l-8-9zM21 5h-12.102l-6.219 7 6.219 7h12.102q0.414 0 0.707-0.293t0.293-0.707v-12q0-0.414-0.293-0.707t-0.707-0.293zM19 9q0 0.422-0.289 0.711l-2.297 2.289 2.297 2.289q0.289 0.289 0.289 0.711 0 0.43-0.285 0.715t-0.715 0.285q-0.422 0-0.711-0.289l-2.289-2.297-2.289 2.297q-0.289 0.289-0.711 0.289-0.414 0-0.707-0.293t-0.293-0.707q0-0.406 0.289-0.711l2.297-2.289-2.297-2.289q-0.289-0.305-0.289-0.711 0-0.414 0.293-0.707t0.707-0.293q0.422 0 0.711 0.289l2.289 2.297 2.289-2.297q0.289-0.289 0.711-0.289 0.43 0 0.715 0.285t0.285 0.715z"></path>
</svg>
<svg id="icon-menu" width="24" height="24" viewBox="0 0 24 24" x="160" y="80">
<path d="M3 5h18q0.414 0 0.707 0.293t0.293 0.707-0.293 0.707-0.707 0.293h-18q-0.414 0-0.707-0.293t-0.293-0.707 0.293-0.707 0.707-0.293zM3 17h18q0.414 0 0.707 0.293t0.293 0.707-0.293 0.707-0.707 0.293h-18q-0.414 0-0.707-0.293t-0.293-0.707 0.293-0.707 0.707-0.293zM3 11h18q0.414 0 0.707 0.293t0.293 0.707-0.293 0.707-0.707 0.293h-18q-0.414 0-0.707-0.293t-0.293-0.707 0.293-0.707 0.707-0.293z"></path>
</svg>
<svg id="icon-inbox" width="24" height="24" viewBox="0 0 24 24" x="200" y="80">
<path d="M12 1q0.414 0 0.707 0.293t0.293 0.707v11.586l3.289-3.297q0.289-0.289 0.711-0.289 0.43 0 0.715 0.285t0.285 0.715q0 0.422-0.289 0.711l-5 5q-0.289 0.289-0.711 0.289t-0.711-0.289l-5-5q-0.289-0.305-0.289-0.711 0-0.414 0.293-0.707t0.707-0.293q0.422 0 0.711 0.289l3.289 3.297v-11.586q0-0.414 0.293-0.707t0.707-0.293zM22 15q0.414 0 0.707 0.293t0.293 0.707v4q0 1.25-0.867 2.117-0.883 0.883-2.109 0.883h-16.023q-1.227 0-2.125-0.875-0.875-0.898-0.875-2.125v-4q0-0.414 0.293-0.707t0.707-0.293 0.707 0.293 0.293 0.707v4q0 0.414 0.293 0.707t0.707 0.293h16.023q0.406 0 0.691-0.293t0.285-0.707v-4q0-0.414 0.293-0.707t0.707-0.293z"></path>
</svg>
<svg id="icon-file" width="24" height="24" viewBox="0 0 24 24" x="240" y="80">
<path d="M5 0h10l7 7v14q0 1.242-0.879 2.121t-2.121 0.879h-14q-1.242 0-2.121-0.879t-0.879-2.121v-18q0-1.242 0.879-2.121t2.121-0.879zM13 9v-7h-8q-0.422 0-0.711 0.289t-0.289 0.711v18q0 0.422 0.289 0.711t0.711 0.289h14q0.422 0 0.711-0.289t0.289-0.711v-12h-7zM19.172 7l-4.172-4.172v4.172h4.172z"></path>
</svg>
<svg id="icon-open" width="24" height="24" viewBox="0 0 24 24" x="280" y="80">
<path d="M4 1h7q0.414 0 0.707 0.293t0.293 0.707-0.293 0.707-0.707 0.293h-7q-0.414 0-0.707 0.293t-0.293 0.707v16q0 0.414 0.293 0.707t0.707 0.293h16q0.414 0 0.707-0.293t0.293-0.707v-7q0-0.414 0.293-0.707t0.707-0.293 0.707 0.293 0.293 0.707v7q0 1.242-0.879 2.121t-2.121 0.879h-16q-1.242 0-2.121-0.879t-0.879-2.121v-16q0-1.242 0.879-2.121t2.121-0.879zM16 1h6q0.414 0 0.707 0.293t0.293 0.707v6q0 0.414-0.293 0.707t-0.707 0.293-0.707-0.293-0.293-0.707v-3.586l-8.297 8.297q-0.289 0.289-0.703 0.289-0.43 0-0.715-0.285t-0.285-0.715q0-0.414 0.289-0.703l8.297-8.297h-3.586q-0.414 0-0.707-0.293t-0.293-0.707 0.293-0.707 0.707-0.293z"></path>
</svg>
</svg>
