<svg xmlns="http://www.w3.org/2000/svg" width="66.667" height="67.667" viewBox="0 0 66.667 67.667">
  <path fill="#FFF" d="M61.86 33.63c0 15.627-12.673 28.3-28.318 28.3-15.646 0-28.312-12.672-28.312-28.3C5.23 17.984 17.896 5.3 33.542 5.3c15.645 0 28.317 12.685 28.317 28.33z"/>
  <path fill="#E2001A" d="M33.53 16.636c9.48 0 17.024 7.524 17.024 16.994 0 9.47-7.542 16.994-17.025 16.994-9.46 0-16.982-7.524-16.982-16.994 0-9.47 7.523-16.994 16.98-16.994zm0 42.744c14.34 0 25.75-11.422 25.75-25.75 0-14.322-11.41-25.75-25.75-25.75-14.316 0-25.732 11.428-25.732 25.75 0 14.328 11.415 25.75 25.73 25.75zm0-58.297c17.972 0 32.54 14.568 32.54 32.547 0 17.96-14.567 32.523-32.54 32.523C15.567 66.153 1 51.59 1 33.63 1 15.65 15.568 1.083 33.53 1.083z"/>
</svg>
