<svg viewBox="0 0 837 236" xmlns="http://www.w3.org/2000/svg" fill-rule="evenodd" clip-rule="evenodd"><g id="Ebene-1"><path d="M21.496,222.616l0,-201.146l449.133,0l0,46.346l353.383,0l0,154.8l-802.516,0Z" fill="#82929a" fill-rule="nonzero" stroke="#1a1a18" stroke-width="2.5px"/><path d="M68.16 37.389l7.196 0 0 7.196-7.196 0 0-7.196zm-2.146 37.625c5.646 0 7.896-5.396 7.896-11.142 0-6.046-2.25-11.146-7.896-11.146-5.65 0-7.896 5.1-7.896 11.146 0 5.746 2.246 11.142 7.896 11.142m-9.246-37.625l7.196 0 0 7.196-7.196 0 0-7.196zm9.246 8.441c11.492 0 17.488 6.846 17.488 18.042 0 11.096-6.096 18.042-17.488 18.042-11.396 0-17.492-6.946-17.492-18.042 0-11.196 5.996-18.042 17.492-18.042M98.016 60.922l2.45 0c3 0 6.796-.1 6.796-4.046 0-3.25-3.25-3.85-6.796-3.85l-2.45 0 0 7.896zm-9.292-14.492l16.588 0c6.195 0 11.245 2.8 11.245 8.796 0 4.65-2.2 7.746-6.695 8.796l0 .1c2.995.8 3.195 3.446 4.945 7.696l3.4 9.496-9.695 0-2-6.3c-1.9-5.996-3.1-7.496-6.546-7.496l-1.95 0 0 13.796-9.292 0 0-34.884zM122.322 46.43l24.583 0 0 6.596-15.291 0 0 7.2 14.446 0 0 6.596-14.446 0 0 7.896 15.846 0 0 6.595-25.138 0 0-34.883zM162.414 74.716l2.75 0c3.4 0 6.946-.5 6.946-4.05 0-3.796-3.65-4.146-6.846-4.146l-2.85 0 0 8.196zm0-14.492l2.6 0c3.046 0 6.196-.75 6.196-3.7 0-3.196-2.996-3.496-6.096-3.496l-2.7 0 0 7.196zm-9.292-13.796l16.038 0c6.496 0 11.346 2.85 11.346 8.846 0 4.4-2.25 6.85-6.146 8.15l0 .096c4.646.95 7.046 3.45 7.046 7.696 0 8.346-7.35 10.096-13.596 10.096l-14.688 0 0-34.884z" fill="#fff" fill-rule="nonzero"/><rect x="185.268" y="62.489" width="13.542" height="6.596" fill="#fff" fill-rule="nonzero"/><path d="M203.871 46.43l9.292 0 0 14.242.1 0 10.496-14.242 11.191 0-12.891 16.242 13.896 18.641-11.846 0-10.846-15.841-.1 0 0 15.841-9.292 0 0-34.883zM250.614 75.914c3.396 0 5.546-3.1 5.546-6.146-1.15-.05-2.45-.15-3.8-.15-3.046 0-5.446.95-5.446 3.446 0 1.8 1.6 2.85 3.7 2.85m6.196 5.396c-.05-1.4-.2-2.746-.2-4.096l-.1 0c-2.05 3.246-4.546 4.696-8.246 4.696-5.146 0-9.746-2.546-9.746-8.196 0-7.946 8.646-8.896 13.446-8.896 1.446 0 3.046.155 4.196.35-.05-3.546-2.696-4.495-5.946-4.495-2.9 0-5.796.55-8.296 1.95l-.15-6.096c3.2-1.3 6.546-1.85 10.396-1.85 6.646 0 12.391 2.846 12.391 10.796l0 9.691c0 2.05.1 4.1.5 6.146l-8.245 0zM268.271 55.276l5.296 0 0-5.846 8.846-2.75 0 8.596 6.296 0 0 6.296-6.296 0 0 9.596c0 3.146.75 4.746 3.596 4.746.9 0 1.85-.2 2.75-.35l.3 5.846c-1.696.2-3.4.504-5.646.504-8.046 0-9.996-3.55-9.996-9.746l0-10.596-5.146 0 0-6.296zM303.863 75.914c3.396 0 5.546-3.1 5.546-6.146-1.15-.05-2.45-.15-3.8-.15-3.046 0-5.446.95-5.446 3.446 0 1.8 1.6 2.85 3.7 2.85m6.196 5.396c-.05-1.4-.2-2.746-.2-4.096l-.1 0c-2.05 3.246-4.546 4.696-8.246 4.696-5.146 0-9.746-2.546-9.746-8.196 0-7.946 8.646-8.896 13.446-8.896 1.446 0 3.046.155 4.196.35-.05-3.546-2.696-4.495-5.946-4.495-2.9 0-5.796.55-8.296 1.95l-.15-6.096c3.2-1.3 6.546-1.85 10.396-1.85 6.646 0 12.392 2.846 12.392 10.796l0 9.691c0 2.05.1 4.1.5 6.146l-8.246 0zM323.319 74.116c2.1.9 5.196 1.8 8.446 1.8 1.85 0 3.645-.3 3.645-2.1 0-4.396-12.791-1.3-12.791-10.696 0-5.996 5.896-8.446 11.096-8.446 3.095 0 6.245.35 9.141 1.5l-.7 6.246c-1.896-1.15-4.746-1.746-6.996-1.746-1.945 0-4.145.35-4.145 1.8 0 4.046 13.391.85 13.391 10.742 0 6.946-6.246 8.696-12.141 8.696-4.05 0-6.796-.4-9.446-1.25l.5-6.546zM346.769 55.276l5.296 0 0-5.846 8.845-2.75 0 8.596 6.296 0 0 6.296-6.296 0 0 9.596c0 3.146.75 4.746 3.596 4.746.9 0 1.85-.2 2.75-.35l.3 5.846c-1.7.2-3.4.504-5.646.504-8.045 0-9.995-3.55-9.995-9.746l0-10.596-5.146 0 0-6.296zM389.257 65.821c0-3-1.4-5.45-4.996-5.45-3.25 0-4.8 2.45-4.996 5.45l9.992 0zm-9.896 5.096c.5 3.6 3.25 4.996 7.646 4.996 2.45 0 5.25-.546 7.946-1.996l0 6.346c-2.896 1.149-6.196 1.649-9.542 1.649-8.596 0-15.146-5.05-15.146-13.645 0-8.596 5.85-13.592 13.946-13.592 9.646 0 13.142 6.846 13.142 14.592l0 1.65-17.992 0zM420.906 62.472c-1-.3-2-.3-3.05-.3-4.196 0-6.546 3.05-6.546 8.146l0 10.992-8.996 0 0-26.034 8.196 0 0 4.796.1 0c1.55-3.296 3.8-5.396 7.696-5.396 1.05 0 2.15.15 3.05.3l-.45 7.496zM51.32 100.597l3.45 0 0 15.641 15.692-15.641 4.495 0-16.891 16.441 18.341 18.442-4.75 0-16.887-17.442 0 17.442-3.45 0 0-34.883zM96.412 122.633l-.9 0c-5.445 0-11.945.554-11.945 6.154 0 3.341 2.4 4.591 5.3 4.591 7.395 0 7.545-6.445 7.545-9.191l0-1.554zm.3 8.75l-.1 0c-1.4 3.045-4.95 4.695-8.095 4.695-7.246 0-8.396-4.895-8.396-7.195 0-8.546 9.096-8.946 15.691-8.946l.6 0 0-1.3c0-4.346-1.55-6.546-5.795-6.546-2.65 0-5.146.6-7.496 2.1l0-3.05c1.946-.95 5.246-1.75 7.496-1.75 6.295 0 8.941 2.85 8.941 9.496l0 11.246c0 2.045 0 3.595.25 5.345l-3.096 0 0-4.095zM119.065 112.692l-5.796 0 0 16.492c0 2.296.85 4.196 3.396 4.196 1.2 0 2-.25 2.9-.6l.2 2.595c-.75.305-2.3.7-3.846.7-5.6 0-5.8-3.85-5.8-8.495l0-14.888-4.996 0 0-2.7 4.996 0 0-6.146 3.15-1.1 0 7.246 5.796 0 0 2.7zM140.063 122.633l-.9 0c-5.446 0-11.946.554-11.946 6.154 0 3.341 2.4 4.591 5.3 4.591 7.396 0 7.546-6.445 7.546-9.191l0-1.554zm.3 8.75l-.1 0c-1.4 3.045-4.95 4.695-8.096 4.695-7.246 0-8.396-4.895-8.396-7.195 0-8.546 9.096-8.946 15.692-8.946l.6 0 0-1.3c0-4.346-1.55-6.546-5.796-6.546-2.65 0-5.146.6-7.496 2.1l0-3.05c1.946-.95 5.246-1.75 7.496-1.75 6.296 0 8.942 2.85 8.942 9.496l0 11.246c0 2.045 0 3.595.25 5.345l-3.096 0 0-4.095zM149.772 131.78c1.9.954 4.195 1.6 6.645 1.6 2.996 0 5.646-1.65 5.646-4.546 0-6.046-12.241-5.1-12.241-12.496 0-5.046 4.095-6.946 8.291-6.946 1.354 0 4.05.3 6.3 1.15l-.3 2.75c-1.65-.75-3.9-1.2-5.65-1.2-3.246 0-5.491 1-5.491 4.246 0 4.75 12.541 4.15 12.541 12.496 0 5.396-5.05 7.241-8.896 7.241-2.45 0-4.899-.3-7.145-1.195l.3-3.1zM183.164 112.692l-5.796 0 0 16.492c0 2.296.85 4.196 3.396 4.196 1.2 0 2-.25 2.9-.6l.2 2.595c-.75.305-2.3.7-3.846.7-5.6 0-5.8-3.85-5.8-8.495l0-14.888-4.996 0 0-2.7 4.996 0 0-6.146 3.15-1.1 0 7.246 5.796 0 0 2.7zM205.36 120.936c0-4.446-1.8-8.846-6.495-8.846-4.646 0-7.496 4.65-7.496 8.846l13.991 0zm1.55 13.742c-2.2.904-5.045 1.4-7.395 1.4-8.446 0-11.596-5.696-11.596-13.338 0-7.8 4.3-13.35 10.746-13.35 7.195 0 10.145 5.8 10.145 12.65l0 1.592-17.441 0c0 5.396 2.896 9.746 8.396 9.746 2.295 0 5.645-.946 7.145-1.901l0 3.201zM215.817 115.689c0-2.796 0-3.846-.199-5.696l3.15 0 0 4.896.1 0c1.149-2.846 3.295-5.496 6.545-5.496.75 0 1.65.15 2.2.3l0 3.3c-.65-.2-1.5-.3-2.3-.3-4.996 0-6.346 5.596-6.346 10.192l0 12.595-3.15 0 0-19.791zM254.882 133.379c5.596 0 7.546-5.992 7.546-10.642 0-4.65-1.95-10.646-7.546-10.646-5.996 0-7.546 5.696-7.546 10.646 0 4.946 1.55 10.642 7.546 10.642m10.696 2.1l-3.15 0 0-4.05-.1 0c-1.7 3.25-4.296 4.646-7.946 4.646-6.996 0-10.492-5.792-10.492-13.338 0-7.75 2.996-13.346 10.492-13.346 5 0 7.496 3.65 7.946 4.9l.1 0 0-16.291 3.15 0 0 37.479zM289.729 120.936c0-4.446-1.8-8.846-6.496-8.846-4.645 0-7.496 4.65-7.496 8.846l13.992 0zm1.55 13.742c-2.2.904-5.046 1.4-7.396 1.4-8.446 0-11.595-5.696-11.595-13.338 0-7.8 4.3-13.35 10.745-13.35 7.196 0 10.146 5.8 10.146 12.65l0 1.592-17.442 0c0 5.396 2.901 9.746 8.396 9.746 2.296 0 5.646-.946 7.146-1.901l0 3.201zM300.189 115.689c0-2.796 0-3.846-.2-5.696l3.15 0 0 4.896.1 0c1.15-2.846 3.296-5.496 6.546-5.496.75 0 1.65.15 2.2.3l0 3.3c-.65-.2-1.5-.3-2.3-.3-4.996 0-6.346 5.596-6.346 10.192l0 12.595-3.15 0 0-19.791zM342.102 101.547l3.75 0 0 4.196-3.75 0 0-4.196zm-8.546 0l3.746 0 0 4.196-3.746 0 0-4.196zm6.146 31.833c5.5 0 8.445-4.75 8.445-10.641 0-5.9-2.945-10.646-8.445-10.646-5.496 0-8.446 4.746-8.446 10.646 0 5.891 2.95 10.641 8.446 10.641m0-23.987c8.245 0 11.895 6.396 11.895 13.346 0 6.941-3.65 13.337-11.895 13.337-8.242 0-11.892-6.396-11.892-13.337 0-6.95 3.65-13.346 11.892-13.346M360.707 112.692l-5.146 0 0-2.7 5.146 0 0-1.85c0-5.346.2-10.742 6.746-10.742 1 0 2.35.15 2.95.5l-.2 2.746c-.65-.35-1.6-.546-2.5-.546-4.3 0-3.85 4.646-3.85 7.692l0 2.2 5.75 0 0 2.7-5.75 0 0 22.788-3.146 0 0-22.788zM377.465 112.692l-5.145 0 0-2.7 5.145 0 0-1.85c0-5.346.2-10.742 6.746-10.742 1 0 2.35.15 2.95.5l-.204 2.746c-.646-.35-1.596-.546-2.496-.546-4.3 0-3.85 4.646-3.85 7.692l0 2.2 5.75 0 0 2.7-5.75 0 0 22.788-3.146 0 0-22.788zM408.508 120.936c0-4.446-1.8-8.846-6.496-8.846-4.646 0-7.496 4.65-7.496 8.846l13.992 0zm1.55 13.742c-2.2.904-5.046 1.4-7.396 1.4-8.446 0-11.596-5.696-11.596-13.338 0-7.8 4.3-13.35 10.746-13.35 7.196 0 10.146 5.8 10.146 12.65l0 1.592-17.442 0c0 5.396 2.9 9.746 8.396 9.746 2.296 0 5.646-.946 7.146-1.901l0 3.201zM418.965 115.99c0-1.95 0-3.95-.2-5.996l3.05 0 0 4.546.1 0c1.046-2.3 2.95-5.146 8.246-5.146 6.292 0 8.692 4.196 8.692 9.796l0 16.288-3.146 0 0-15.492c0-4.796-1.7-7.896-6.05-7.896-5.746 0-7.542 5.05-7.542 9.296l0 14.092-3.15 0 0-19.488zM458.76 112.692l-5.796 0 0 16.492c0 2.296.85 4.196 3.396 4.196 1.204 0 2-.25 2.9-.6l.2 2.595c-.75.305-2.3.7-3.85.7-5.596 0-5.792-3.85-5.792-8.495l0-14.888-5 0 0-2.7 5 0 0-6.146 3.146-1.1 0 7.246 5.796 0 0 2.7z" fill="#fff" fill-rule="nonzero"/><rect x="465.418" y="97.997" width="3.15" height="37.479" fill="#fff" fill-rule="nonzero"/><path d="M477.514 109.993l3.15 0 0 25.487-3.15 0 0-25.487zm3.15-6.796l-3.15 0 0-4.2 3.15 0 0 4.2zM506.205 113.39c-1.7-.75-3.746-1.3-5.446-1.3-6.146 0-9.592 4.45-9.592 10.65 0 5.791 3.492 10.637 9.242 10.637 1.996 0 3.846-.45 5.746-1.15l.304 2.954c-2.15.75-4.154.896-6.554.896-8.196 0-12.188-6.246-12.188-13.337 0-7.85 5.042-13.346 12.592-13.346 3.046 0 5.246.696 6.15 1l-.254 2.996zM512.813 97.999l3.15 0 0 16.291.096 0c1.354-2.8 4.2-4.9 7.95-4.9 6.846 0 8.691 4.55 8.691 10.846l0 15.242-3.145 0 0-15.192c0-4.396-.85-8.196-6.05-8.196-5.592 0-7.542 5.296-7.542 9.746l0 13.642-3.15 0 0-37.479z" fill="#fff" fill-rule="nonzero"/><rect x="539.714" y="120.289" width="12.546" height="3.45" fill="#fff" fill-rule="nonzero"/><path d="M559.265 115.689c0-2.796 0-3.846-.205-5.696l3.15 0 0 4.896.1 0c1.155-2.846 3.3-5.496 6.55-5.496.746 0 1.646.15 2.196.3l0 3.3c-.65-.2-1.496-.3-2.3-.3-4.996 0-6.341 5.596-6.341 10.192l0 12.595-3.15 0 0-19.791zM591.564 120.936c0-4.446-1.8-8.846-6.5-8.846-4.646 0-7.491 4.65-7.491 8.846l13.991 0zm1.546 13.742c-2.196.904-5.046 1.4-7.392 1.4-8.45 0-11.596-5.696-11.596-13.338 0-7.8 4.3-13.35 10.746-13.35 7.192 0 10.142 5.8 10.142 12.65l0 1.592-17.438 0c0 5.396 2.896 9.746 8.392 9.746 2.3 0 5.65-.946 7.146-1.901l0 3.201zM618.611 113.39c-1.696-.75-3.746-1.3-5.45-1.3-6.141 0-9.591 4.45-9.591 10.65 0 5.791 3.495 10.637 9.241 10.637 2.004 0 3.85-.45 5.75-1.15l.3 2.954c-2.15.75-4.15.896-6.546.896-8.195 0-12.191-6.246-12.191-13.337 0-7.85 5.046-13.346 12.591-13.346 3.046 0 5.25.696 6.146 1l-.25 2.996zM625.219 97.999l3.15 0 0 16.291.1 0c1.35-2.8 4.196-4.9 7.946-4.9 6.846 0 8.692 4.55 8.692 10.846l0 15.242-3.142 0 0-15.192c0-4.396-.858-8.196-6.05-8.196-5.596 0-7.546 5.296-7.546 9.746l0 13.642-3.15 0 0-37.479zM665.014 112.692l-5.8 0 0 16.492c0 2.296.854 4.196 3.404 4.196 1.196 0 1.996-.25 2.896-.6l.2 2.595c-.75.305-2.3.7-3.846.7-5.6 0-5.796-3.85-5.796-8.495l0-14.888-5.004 0 0-2.7 5.004 0 0-6.146 3.142-1.1 0 7.246 5.8 0 0 2.7z" fill="#fff" fill-rule="nonzero"/><rect x="671.668" y="97.997" width="3.15" height="37.479" fill="#fff" fill-rule="nonzero"/><path d="M683.768 109.993l3.15 0 0 25.487-3.15 0 0-25.487zm3.15-6.796l-3.15 0 0-4.2 3.15 0 0 4.2zM712.459 113.39c-1.696-.75-3.746-1.3-5.45-1.3-6.142 0-9.592 4.45-9.592 10.65 0 5.791 3.496 10.637 9.242 10.637 2.004 0 3.85-.45 5.75-1.15l.3 2.954c-2.15.75-4.15.896-6.546.896-8.196 0-12.192-6.246-12.192-13.337 0-7.85 5.046-13.346 12.592-13.346 3.046 0 5.25.696 6.146 1l-.25 2.996zM719.067 97.999l3.15 0 0 16.291.1 0c1.35-2.8 4.196-4.9 7.946-4.9 6.845 0 8.691 4.55 8.691 10.846l0 15.242-3.141 0 0-15.192c0-4.396-.859-8.196-6.051-8.196-5.595 0-7.545 5.296-7.545 9.746l0 13.642-3.15 0 0-37.479zM763.407 120.936c0-4.446-1.8-8.846-6.496-8.846-4.646 0-7.492 4.65-7.492 8.846l13.988 0zm1.55 13.742c-2.2.904-5.05 1.4-7.392 1.4-8.45 0-11.6-5.696-11.6-13.338 0-7.8 4.3-13.35 10.746-13.35 7.196 0 10.146 5.8 10.146 12.65l0 1.592-17.438 0c0 5.396 2.896 9.746 8.388 9.746 2.304 0 5.65-.946 7.15-1.901l0 3.201zM773.864 115.99c0-1.95 0-3.95-.196-5.996l3.05 0 0 4.546.1 0c1.046-2.3 2.946-5.146 8.246-5.146 6.292 0 8.688 4.196 8.688 9.796l0 16.288-3.142 0 0-15.492c0-4.796-1.7-7.896-6.05-7.896-5.75 0-7.546 5.05-7.546 9.296l0 14.092-3.15 0 0-19.488zM50.87 154.761l17.092 0 0 3.004-13.642 0 0 12.442 12.942 0 0 2.996-12.942 0 0 13.442 14.242 0 0 3-17.692 0 0-34.884zM76.518 164.16l3.15 0 0 25.483-3.15 0 0-25.483zm3.15-6.796l-3.15 0 0-4.2 3.15 0 0 4.2zM97.914 186.948c5.696-.001 7.746-5.396 7.746-10.042 0-6.154-1.8-10.646-7.546-10.646-5.996 0-7.546 5.696-7.546 10.646 0 4.996 2 10.041 7.346 10.041m10.896.6c0 7.096-3.2 12.892-11.946 12.892-3.346 0-6.396-.95-7.696-1.35l.25-3.15c1.95 1 4.75 1.8 7.496 1.8 8.096 0 8.796-5.892 8.796-13.092l-.1 0c-1.7 3.701-4.496 4.996-7.746 4.996-8.146 0-10.742-7.095-10.742-12.737 0-7.75 2.996-13.346 10.492-13.346 3.4 0 5.596.446 7.946 3.5l.1 0 0-2.9 3.15 0 0 23.387zM132.96 175.103c0-4.446-1.8-8.842-6.495-8.842-4.646 0-7.496 4.646-7.496 8.842l13.991 0zm1.55 13.741c-2.2.904-5.045 1.4-7.395 1.4-8.446 0-11.596-5.696-11.596-13.337 0-7.796 4.3-13.35 10.746-13.35 7.195 0 10.145 5.8 10.145 12.65l0 1.591-17.441 0c0 5.396 2.896 9.746 8.396 9.746 2.295 0 5.645-.946 7.145-1.9l0 3.2zM143.42 170.159c0-1.954 0-3.95-.2-5.996l3.05 0 0 4.542.1 0c1.046-2.296 2.95-5.146 8.246-5.146 6.296 0 8.691 4.2 8.691 9.8l0 16.287-3.145 0 0-15.491c0-4.796-1.7-7.896-6.046-7.896-5.75 0-7.546 5.046-7.546 9.296l0 14.091-3.15 0 0-19.487zM183.213 166.859l-5.796 0 0 16.491c0 2.296.85 4.196 3.396 4.196 1.2 0 2-.25 2.9-.6l.2 2.596c-.75.304-2.3.7-3.846.7-5.6 0-5.8-3.85-5.8-8.496l0-14.887-4.996 0 0-2.696 4.996 0 0-6.15 3.15-1.1 0 7.25 5.796 0 0 2.696zM209.759 183.648c0 1.95 0 3.95.2 5.995l-3.05 0 0-4.541-.1 0c-1.046 2.291-2.946 5.141-8.246 5.141-6.296 0-8.692-4.195-8.692-9.795l0-16.288 3.146 0 0 15.492c0 4.796 1.7 7.895 6.05 7.895 5.746 0 7.546-5.045 7.546-9.295l0-14.092 3.146 0 0 19.488zM249.452 189.645l0-16.937c0-3.6-1.35-6.446-5.396-6.446-3.45 0-6.846 2.946-6.846 9.291l0 14.092-3.15 0 0-16.937c0-3.6-1.35-6.446-5.395-6.446-3.45 0-6.846 2.946-6.846 9.291l0 14.092-3.15 0 0-19.487c0-1.955 0-3.95-.2-5.996l3.046 0 0 4.296.104.05c1-1.75 2.496-4.95 7.946-4.95 2.245 0 5.945.954 6.745 5.395l.1 0c1.15-2.995 4.146-5.395 8.146-5.395 5.146 0 8.042 3.6 8.042 8.545l0 17.542-3.146 0zM259.37 185.946c1.9.954 4.196 1.6 6.646 1.6 2.996 0 5.646-1.65 5.646-4.546 0-6.045-12.242-5.1-12.242-12.491 0-5.05 4.096-6.95 8.292-6.95 1.354 0 4.05.3 6.3 1.146l-.3 2.754c-1.65-.75-3.9-1.2-5.65-1.2-3.246 0-5.492 1-5.492 4.25 0 4.746 12.542 4.141 12.542 12.491 0 5.396-5.05 7.242-8.896 7.242-2.45 0-4.9-.3-7.146-1.196l.3-3.1zM292.162 166.26c-5.745 0-7.545 5.992-7.545 10.646 0 4.646 1.95 10.638 7.545 10.638 5.996 0 7.546-5.696 7.546-10.638 0-4.95-1.55-10.646-7.546-10.646m-10.691-14.095l3.146 0 0 16.291.1 0c.45-1.25 2.95-4.896 7.945-4.896 7.496 0 10.496 5.596 10.496 13.346 0 7.542-3.5 13.338-10.496 13.338-3.645 0-6.245-1.4-7.945-4.646l-.1 0 0 4.046-3.146 0 0-37.479zM326.11 175.103c0-4.446-1.8-8.842-6.495-8.842-4.646 0-7.496 4.646-7.496 8.842l13.991 0zm1.55 13.741c-2.2.904-5.045 1.4-7.395 1.4-8.446 0-11.596-5.696-11.596-13.337 0-7.796 4.3-13.35 10.746-13.35 7.195 0 10.145 5.8 10.145 12.65l0 1.591-17.441 0c0 5.396 2.9 9.746 8.396 9.746 2.295 0 5.645-.946 7.145-1.9l0 3.2zM334.619 185.946c1.9.954 4.2 1.6 6.646 1.6 3 0 5.65-1.65 5.65-4.546 0-6.045-12.246-5.1-12.246-12.491 0-5.05 4.1-6.95 8.296-6.95 1.35 0 4.05.3 6.295 1.146l-.3 2.754c-1.65-.75-3.895-1.2-5.645-1.2-3.246 0-5.496 1-5.496 4.25 0 4.746 12.541 4.141 12.541 12.491 0 5.396-5.045 7.242-8.891 7.242-2.45 0-4.9-.3-7.15-1.196l.3-3.1zM373.608 167.555c-1.7-.75-3.746-1.296-5.446-1.296-6.146 0-9.596 4.446-9.596 10.646 0 5.795 3.496 10.641 9.246 10.641 1.996 0 3.846-.454 5.746-1.154l.3 2.954c-2.15.75-4.15.896-6.546.896-8.196 0-12.192-6.246-12.192-13.337 0-7.85 5.046-13.346 12.592-13.346 3.046 0 5.246.7 6.146 1l-.25 2.996zM380.216 152.165l3.15 0 0 16.292.1 0c1.35-2.8 4.196-4.9 7.946-4.9 6.845 0 8.691 4.55 8.691 10.846l0 15.242-3.146 0 0-15.188c0-4.4-.849-8.196-6.045-8.196-5.596 0-7.546 5.292-7.546 9.742l0 13.642-3.15 0 0-37.48zM409.016 169.857c0-2.8 0-3.85-.2-5.695l3.15 0 0 4.895.1 0c1.15-2.85 3.296-5.5 6.546-5.5.75 0 1.65.15 2.2.305l0 3.295c-.65-.195-1.5-.3-2.3-.3-4.996 0-6.346 5.596-6.346 10.196l0 12.592-3.15 0 0-19.788zM437.61 155.714l3.75 0 0 4.2-3.75 0 0-4.2zm-8.546 0l3.75 0 0 4.2-3.75 0 0-4.2zm11.946 21.087l-.904 0c-5.442 0-11.942.55-11.942 6.15 0 3.346 2.396 4.596 5.3 4.596 7.392 0 7.546-6.446 7.546-9.192l0-1.554zm.3 8.746l-.104 0c-1.4 3.05-4.946 4.696-8.092 4.696-7.25 0-8.396-4.896-8.396-7.192 0-8.546 9.096-8.946 15.692-8.946l.6 0 0-1.3c0-4.345-1.554-6.545-5.796-6.545-2.65 0-5.15.6-7.5 2.095l0-3.045c1.954-.955 5.25-1.75 7.5-1.75 6.292 0 8.942 2.845 8.942 9.495l0 11.242c0 2.05 0 3.6.25 5.35l-3.096 0 0-4.1zM452.665 170.159c0-1.954 0-3.95-.196-5.996l3.05 0 0 4.542.1 0c1.046-2.296 2.946-5.146 8.246-5.146 6.291 0 8.687 4.2 8.687 9.8l0 16.287-3.142 0 0-15.491c0-4.796-1.7-7.896-6.05-7.896-5.75 0-7.545 5.046-7.545 9.296l0 14.091-3.15 0 0-19.487zM481.465 152.165l3.15 0 0 22.438 11.392-10.442 4.05 0-12.442 11.292 13.942 14.192-4.35 0-12.592-13.088 0 13.088-3.15 0 0-37.48zM527.355 183.648c0 1.95 0 3.95.205 5.995l-3.055 0 0-4.541-.095 0c-1.05 2.291-2.95 5.141-8.25 5.141-6.292 0-8.692-4.195-8.692-9.795l0-16.288 3.146 0 0 15.492c0 4.796 1.704 7.895 6.05 7.895 5.746 0 7.541-5.045 7.541-9.295l0-14.092 3.15 0 0 19.488zM536.267 170.159c0-1.954 0-3.95-.2-5.996l3.05 0 0 4.542.1 0c1.045-2.296 2.95-5.146 8.245-5.146 6.292 0 8.692 4.2 8.692 9.8l0 16.287-3.146 0 0-15.491c0-4.796-1.7-7.896-6.05-7.896-5.746 0-7.541 5.046-7.541 9.296l0 14.091-3.15 0 0-19.487zM574.36 186.948c5.696-.001 7.746-5.396 7.746-10.042 0-6.154-1.796-10.646-7.546-10.646-5.995 0-7.55 5.696-7.55 10.646 0 4.996 2.005 10.041 7.35 10.041m10.896.6c0 7.096-3.196 12.892-11.946 12.892-3.345 0-6.395-.95-7.695-1.35l.25-3.15c1.95 1 4.75 1.8 7.495 1.8 8.096 0 8.796-5.892 8.796-13.092l-.096 0c-1.704 3.701-4.5 4.996-7.75 4.996-8.145 0-10.741-7.095-10.741-12.737 0-7.75 2.996-13.346 10.491-13.346 3.4 0 5.596.446 7.946 3.5l.1 0 0-2.9 3.15 0 0 23.387zM609.407 175.103c0-4.446-1.8-8.842-6.5-8.842-4.646 0-7.492 4.646-7.492 8.842l13.992 0zm1.55 13.741c-2.196.904-5.046 1.4-7.396 1.4-8.446 0-11.596-5.696-11.596-13.337 0-7.796 4.3-13.35 10.75-13.35 7.192 0 10.138 5.8 10.138 12.65l0 1.591-17.438 0c0 5.396 2.9 9.746 8.396 9.746 2.296 0 5.65-.946 7.146-1.9l0 3.2zM619.864 170.159c0-1.954 0-3.95-.2-5.996l3.05 0 0 4.542.1 0c1.05-2.296 2.946-5.146 8.246-5.146 6.296 0 8.692 4.2 8.692 9.8l0 16.287-3.142 0 0-15.491c0-4.796-1.704-7.896-6.05-7.896-5.75 0-7.546 5.046-7.546 9.296l0 14.091-3.15 0 0-19.487zM40.217 21.51c0 10.329-8.375 18.7-18.712 18.7-10.342 0-18.708-8.371-18.708-18.7 0-10.338 8.366-18.721 18.708-18.721 10.337 0 18.712 8.383 18.712 18.721" fill="#fff" fill-rule="nonzero"/><path d="M21.496,10.279c6.266,0 11.25,4.971 11.25,11.229c0,6.259 -4.984,11.234 -11.25,11.234c-6.25,0 -11.221,-4.975 -11.221,-11.234c0,-6.258 4.971,-11.229 11.221,-11.229m0,28.246c9.475,0 17.016,-7.546 17.016,-17.017c0,-9.462 -7.541,-17.016 -17.016,-17.016c-9.463,0 -17.004,7.554 -17.004,17.016c0,9.471 7.541,17.017 17.004,17.017m0,-38.525c11.879,0 21.504,9.629 21.504,21.508c0,11.871 -9.625,21.496 -21.504,21.496c-11.871,0 -21.496,-9.625 -21.496,-21.496c0,-11.879 9.625,-21.508 21.496,-21.508" fill="#e3000f" fill-rule="nonzero"/><path d="M29.296,222.612c0,4.308 -3.491,7.8 -7.8,7.8c-4.308,0 -7.8,-3.492 -7.8,-7.8c0,-4.3 3.492,-7.792 7.8,-7.792c4.309,0 7.8,3.492 7.8,7.792" fill="#fff" fill-rule="nonzero"/><path d="M29.296,222.612c0,4.308 -3.491,7.8 -7.8,7.8c-4.308,0 -7.8,-3.492 -7.8,-7.8c0,-4.3 3.492,-7.792 7.8,-7.792c4.309,0 7.8,3.492 7.8,7.792Z" fill="none" stroke="#1a1a18" stroke-width="2.5px"/><path d="M831.774,222.612c0,4.308 -3.487,7.8 -7.8,7.8c-4.304,0 -7.796,-3.492 -7.796,-7.8c0,-4.3 3.492,-7.792 7.796,-7.792c4.313,0 7.8,3.492 7.8,7.792" fill="#fff" fill-rule="nonzero"/><path d="M831.774,222.612c0,4.308 -3.487,7.8 -7.8,7.8c-4.304,0 -7.796,-3.492 -7.796,-7.8c0,-4.3 3.492,-7.792 7.796,-7.792c4.313,0 7.8,3.492 7.8,7.792Z" fill="none" stroke="#1a1a18" stroke-width="2.5px"/><path d="M478.43,67.807c0,4.304 -3.488,7.8 -7.8,7.8c-4.305,0 -7.796,-3.496 -7.796,-7.8c0,-4.296 3.491,-7.788 7.796,-7.788c4.312,0 7.8,3.492 7.8,7.788" fill="#fff" fill-rule="nonzero"/><path d="M478.43,67.807c0,4.304 -3.488,7.8 -7.8,7.8c-4.305,0 -7.796,-3.496 -7.796,-7.8c0,-4.296 3.491,-7.788 7.796,-7.788c4.312,0 7.8,3.492 7.8,7.788Z" fill="none" stroke="#1a1a18" stroke-width="2.5px"/><path d="M831.774,67.807c0,4.304 -3.492,7.8 -7.8,7.8c-4.308,0 -7.796,-3.496 -7.796,-7.8c0,-4.296 3.488,-7.788 7.796,-7.788c4.308,0 7.8,3.492 7.8,7.788" fill="#fff" fill-rule="nonzero"/><path d="M831.774,67.807c0,4.304 -3.492,7.8 -7.8,7.8c-4.308,0 -7.796,-3.496 -7.796,-7.8c0,-4.296 3.488,-7.788 7.796,-7.788c4.308,0 7.8,3.492 7.8,7.788Z" fill="none" stroke="#1a1a18" stroke-width="2.5px"/><path d="M478.43,21.469c0,4.304 -3.492,7.796 -7.8,7.796c-4.309,0 -7.796,-3.492 -7.796,-7.796c0,-4.304 3.487,-7.792 7.796,-7.792c4.308,0 7.8,3.488 7.8,7.792" fill="#fff" fill-rule="nonzero"/><path d="M478.43,21.469c0,4.304 -3.492,7.796 -7.8,7.796c-4.309,0 -7.796,-3.492 -7.796,-7.796c0,-4.304 3.487,-7.792 7.796,-7.792c4.308,0 7.8,3.488 7.8,7.792Z" fill="none" stroke="#1a1a18" stroke-width="2.5px"/></g></svg>