<svg viewBox="0 0 161 57" xmlns="http://www.w3.org/2000/svg" fill-rule="evenodd" clip-rule="evenodd">
  <g id="Ebene-1">
    <path d="M5.159,53.427l0,-48.276l114.972,0l0,11.123l37.571,0l0,37.153l-152.543,0Z" fill="#82929a" fill-rule="nonzero" stroke="#1a1a18" stroke-width="0.6px"/>
    <path d="M18.937 19.322c-.636.156-1.343.336-2.482.336-2.231 0-4.81-1.128-4.81-4.294 0-2.914 2.039-4.365 4.797-4.365.852 0 1.68.192 2.483.431l-.18 1.811c-.72-.396-1.415-.587-2.183-.587-1.583 0-2.614 1.151-2.614 2.71 0 1.643 1.163 2.639 2.794 2.639.732 0 1.475-.192 2.087-.432l.108 1.751zM22.516 18.219c.815 0 1.331-.744 1.331-1.475-.276-.012-.588-.036-.912-.036-.731 0-1.307.228-1.307.827 0 .432.384.684.888.684m1.487 1.295c-.012-.336-.048-.659-.048-.983l-.024 0c-.492.779-1.091 1.127-1.979 1.127-1.235 0-2.339-.611-2.339-1.967 0-1.907 2.075-2.135 3.227-2.135.347 0 .731.037 1.007.084-.012-.851-.647-1.079-1.427-1.079-.696 0-1.391.132-1.991.468l-.036-1.463c.768-.312 1.571-.444 2.495-.444 1.595 0 2.974.683 2.974 2.591l0 2.326c0 .492.024.984.12 1.475l-1.979 0zM30.543 18.003c.72 0 1.319-.684 1.319-1.595 0-.947-.527-1.631-1.319-1.631-.839 0-1.307.72-1.307 1.547 0 .995.492 1.679 1.307 1.679m3.479 1.511l-1.992 0 0-1.115-.024 0c-.276.695-1.151 1.259-2.147 1.259-1.858 0-2.854-1.535-2.854-3.382 0-1.535.948-3.154 2.675-3.154.863 0 1.595.228 2.147.947l.024 0 0-3.55 2.171 0 0 8.995zM37.984 18.219c.815 0 1.331-.744 1.331-1.475-.276-.012-.588-.036-.912-.036-.731 0-1.307.228-1.307.827 0 .432.384.684.888.684m1.487 1.295c-.012-.336-.048-.659-.048-.983l-.024 0c-.492.779-1.091 1.127-1.979 1.127-1.235 0-2.339-.611-2.339-1.967 0-1.907 2.075-2.135 3.227-2.135.347 0 .731.037 1.007.084-.012-.851-.647-1.079-1.427-1.079-.696 0-1.391.132-1.991.468l-.036-1.463c.768-.312 1.571-.444 2.495-.444 1.595 0 2.974.683 2.974 2.591l0 2.326c0 .492.024.984.12 1.475l-1.979 0zM42.653 17.787c.504.216 1.247.432 2.027.432.444 0 .875-.072.875-.504 0-1.055-3.07-.312-3.07-2.567 0-1.439 1.415-2.027 2.663-2.027.743 0 1.499.084 2.194.36l-.168 1.499c-.455-.276-1.139-.419-1.679-.419-.467 0-.995.084-.995.432 0 .971 3.214.204 3.214 2.578 0 1.667-1.499 2.087-2.914 2.087-.972 0-1.631-.096-2.267-.3l.12-1.571zM48.281 13.266l1.271 0 0-1.403 2.123-.66 0 2.063 1.511 0 0 1.511-1.511 0 0 2.303c0 .755.18 1.139.863 1.139.216 0 .444-.048.66-.084l.072 1.403c-.408.048-.816.121-1.355.121-1.931 0-2.399-.852-2.399-2.339l0-2.543-1.235 0 0-1.511zM58.682 14.993c-.24-.072-.48-.072-.732-.072-1.007 0-1.571.732-1.571 1.955l0 2.638-2.159 0 0-6.248 1.967 0 0 1.151.024 0c.372-.791.912-1.295 1.847-1.295.252 0 .516.036.732.072l-.108 1.799zM63.652 15.797c0-.72-.336-1.308-1.199-1.308-.78 0-1.152.588-1.199 1.308l2.398 0zm-2.375 1.223c.12.864.78 1.199 1.835 1.199.588 0 1.26-.131 1.907-.479l0 1.523c-.695.276-1.487.396-2.29.396-2.063 0-3.635-1.212-3.635-3.275 0-2.063 1.404-3.262 3.347-3.262 2.315 0 3.154 1.643 3.154 3.502l0 .396-4.318 0zM72.237 14.621l.588 0c.72 0 1.631-.024 1.631-.971 0-.78-.78-.924-1.631-.924l-.588 0 0 1.895zm-2.23-3.478l3.981 0c1.487 0 2.699.672 2.699 2.111 0 1.116-.528 1.859-1.607 2.111l0 .024c.719.192.767.827 1.187 1.847l.816 2.279-2.327 0-.48-1.512c-.456-1.439-.744-1.799-1.571-1.799l-.468 0 0 3.311-2.23 0 0-8.372zM80.361 17.859l.864 0c1.666 0 2.602-.863 2.602-2.53 0-1.667-.971-2.531-2.602-2.531l-.864 0 0 5.061zm-2.23-6.716l3.045 0c2.914 0 4.954.911 4.954 4.15 0 3.13-2.099 4.221-4.954 4.221l-3.045 0 0-8.371zM89.638 15.005l.576 0c.768 0 1.379-.275 1.379-1.151 0-.851-.611-1.127-1.379-1.127l-.576 0 0 2.278zm-2.23-3.862l2.662 0c2.554 0 3.754.864 3.754 2.747 0 1.691-1.236 2.698-3.323 2.698l-.863 0 0 2.927-2.23 0 0-8.372zM97.03 15.005l.575 0c.768 0 1.379-.275 1.379-1.151 0-.851-.611-1.127-1.379-1.127l-.575 0 0 2.278zm-2.231-3.862l2.663 0c2.554 0 3.754.864 3.754 2.747 0 1.691-1.237 2.698-3.323 2.698l-.863 0 0 2.927-2.231 0 0-8.372zM102.251 11.143l5.6 0 0 1.583-3.37 0 0 1.835 3.227 0 0 1.583-3.227 0 0 3.371-2.23 0 0-8.372zM13.06 27.849l.875 0c.972 0 2.087-.372 2.087-1.535 0-1.367-.971-1.451-2.11-1.451l-.852 0 0 2.986zm-.827-3.706l2.159 0c1.486 0 2.458.636 2.458 2.171 0 1.079-.828 1.799-1.859 1.931l0 .024c.672.084.816.444 1.08 1.007l1.426 3.239-.911 0-1.211-2.832c-.48-1.078-.839-1.114-1.631-1.114l-.684 0 0 3.946-.827 0 0-8.372zM22.767 29.024c0-1.067-.432-2.123-1.559-2.123-1.115 0-1.799 1.116-1.799 2.123l3.358 0zm.372 3.298c-.528.217-1.211.336-1.775.336-2.027 0-2.783-1.367-2.783-3.201 0-1.872 1.032-3.204 2.579-3.204 1.727 0 2.435 1.392 2.435 3.036l0 .382-4.186 0c0 1.295.695 2.339 2.015 2.339.551 0 1.355-.227 1.715-.456l0 .768zM24.809 31.627c.456.229 1.007.384 1.595.384.719 0 1.355-.396 1.355-1.091 0-1.451-2.938-1.224-2.938-2.999 0-1.211.983-1.667 1.99-1.667.325 0 .972.072 1.512.276l-.072.66c-.396-.18-.936-.288-1.356-.288-.779 0-1.318.24-1.318 1.019 0 1.14 3.01.996 3.01 2.999 0 1.295-1.212 1.738-2.135 1.738-.588 0-1.176-.072-1.715-.287l.072-.744zM32.824 27.046l-1.391 0 0 3.958c0 .551.204 1.007.815 1.007.288 0 .48-.06.696-.144l.048.623c-.18.073-.552.168-.923.168-1.344 0-1.392-.924-1.392-2.039l0-3.573-1.199 0 0-.648 1.199 0 0-1.475.756-.264 0 1.739 1.391 0 0 .648zM34.421 27.765c0-.671 0-.923-.048-1.367l.756 0 0 1.175.024 0c.276-.683.791-1.319 1.571-1.319.18 0 .396.036.528.072l0 .792c-.156-.048-.36-.072-.552-.072-1.199 0-1.523 1.343-1.523 2.446l0 3.023-.756 0 0-4.75zM38.656 26.397l.756 0 0 6.117-.756 0 0-6.117zm.756-1.63l-.756 0 0-1.008.756 0 0 1.008zM45.542 27.213c-.408-.18-.899-.312-1.307-.312-1.475 0-2.303 1.068-2.303 2.556 0 1.39.839 2.553 2.219 2.553.479 0 .923-.108 1.379-.276l.072.709c-.516.18-.996.215-1.571.215-1.967 0-2.926-1.499-2.926-3.201 0-1.884 1.211-3.203 3.022-3.203.731 0 1.259.167 1.475.24l-.06.719zM49.767 27.046l-1.391 0 0 3.958c0 .551.204 1.007.815 1.007.288 0 .48-.06.696-.144l.048.623c-.18.073-.552.168-.923.168-1.344 0-1.392-.924-1.392-2.039l0-3.573-1.199 0 0-.648 1.199 0 0-1.475.756-.264 0 1.739 1.391 0 0 .648zM51.364 26.397l.756 0 0 6.117-.756 0 0-6.117zm.756-1.63l-.756 0 0-1.008.756 0 0 1.008zM56.655 32.01c1.319 0 2.027-1.14 2.027-2.553 0-1.417-.708-2.555-2.027-2.555-1.319 0-2.027 1.138-2.027 2.555 0 1.413.708 2.553 2.027 2.553m0-5.757c1.979 0 2.854 1.536 2.854 3.204 0 1.666-.875 3.2-2.854 3.2-1.979 0-2.854-1.534-2.854-3.2 0-1.668.875-3.204 2.854-3.204M61.18 27.837c0-.468 0-.948-.048-1.439l.732 0 0 1.091.024 0c.251-.552.708-1.235 1.979-1.235 1.511 0 2.086 1.007 2.086 2.351l0 3.909-.755 0 0-3.718c0-1.151-.408-1.895-1.451-1.895-1.38 0-1.811 1.212-1.811 2.231l0 3.382-.756 0 0-4.677zM67.624 31.627c.456.229 1.008.384 1.595.384.72 0 1.356-.396 1.356-1.091 0-1.451-2.939-1.224-2.939-2.999 0-1.211.984-1.667 1.991-1.667.324 0 .972.072 1.511.276l-.072.66c-.396-.18-.935-.288-1.355-.288-.779 0-1.319.24-1.319 1.019 0 1.14 3.01.996 3.01 2.999 0 1.295-1.211 1.738-2.134 1.738-.588 0-1.176-.072-1.716-.287l.072-.744zM78.139 32.01c1.343 0 1.811-1.438 1.811-2.553 0-1.117-.468-2.555-1.811-2.555-1.439 0-1.811 1.366-1.811 2.555 0 1.186.372 2.553 1.811 2.553m2.567.505l-.756-.001 0-.972-.024 0c-.408.78-1.031 1.115-1.907 1.115-1.679 0-2.518-1.39-2.518-3.2 0-1.861.719-3.204 2.518-3.204 1.2 0 1.799.876 1.907 1.176l.024 0 0-3.91.756 0 0 8.995zM86.503 29.024c0-1.067-.432-2.123-1.56-2.123-1.115 0-1.798 1.116-1.798 2.123l3.358 0zm.371 3.298c-.527.217-1.211.336-1.774.336-2.028 0-2.783-1.367-2.783-3.201 0-1.872 1.032-3.204 2.579-3.204 1.726 0 2.434 1.392 2.434 3.036l0 .382-4.185 0c0 1.295.695 2.339 2.014 2.339.552 0 1.356-.227 1.715-.456l0 .768zM94.152 32.01c1.343 0 1.812-1.438 1.812-2.553 0-1.117-.469-2.555-1.812-2.555-1.438 0-1.812 1.366-1.812 2.555 0 1.186.374 2.553 1.812 2.553m2.567.505l-.755-.001 0-.972-.025 0c-.407.78-1.031 1.115-1.907 1.115-1.679 0-2.518-1.39-2.518-3.2 0-1.861.719-3.204 2.518-3.204 1.199 0 1.799.876 1.907 1.176l.025 0 0-3.91.755 0 0 8.995zM98.785 27.765c0-.671 0-.923-.048-1.367l.756 0 0 1.175.023 0c.277-.683.792-1.319 1.572-1.319.18 0 .395.036.528.072l0 .792c-.156-.048-.36-.072-.553-.072-1.199 0-1.522 1.343-1.522 2.446l0 3.023-.756 0 0-4.75zM105.194 32.01c1.319 0 2.027-1.14 2.027-2.553 0-1.417-.708-2.555-2.027-2.555-1.319 0-2.027 1.138-2.027 2.555 0 1.413.708 2.553 2.027 2.553m0-5.757c1.979 0 2.854 1.536 2.854 3.204 0 1.666-.875 3.2-2.854 3.2-1.979 0-2.854-1.534-2.854-3.2 0-1.668.875-3.204 2.854-3.204M109.719 26.397l.756 0 0 6.117-.756 0 0-6.117zm.756-1.63l-.756 0 0-1.008.756 0 0 1.008zM115.262 27.046l-1.392 0 0 3.958c0 .551.205 1.007.817 1.007.287 0 .479-.06.695-.144l.048.623c-.18.073-.552.168-.923.168-1.344 0-1.391-.924-1.391-2.039l0-3.573-1.201 0 0-.648 1.201 0 0-1.475.754-.264 0 1.739 1.392 0 0 .648zM122.214 26.902c-1.343 0-1.811 1.439-1.811 2.555 0 1.115.468 2.554 1.811 2.554 1.439 0 1.812-1.367 1.812-2.554 0-1.188-.373-2.555-1.812-2.555m-2.566-.504l.755 0-.047 1.115.024 0c.191-.335.659-1.259 1.955-1.259 1.799 0 2.518 1.343 2.518 3.203 0 1.811-.839 3.201-2.518 3.201-.96 0-1.535-.395-1.907-1.187l-.025 0 0 3.562-.755 0 0-8.635zM131.405 31.075c0 .468 0 .948.049 1.439l-.733 0 0-1.09-.023 0c-.252.55-.708 1.234-1.98 1.234-1.51 0-2.086-1.007-2.086-2.351l0-3.909.755 0 0 3.718c0 1.151.409 1.895 1.452 1.895 1.379 0 1.81-1.211 1.81-2.231l0-3.382.756 0 0 4.677zM136.038 26.902c-1.379 0-1.811 1.439-1.811 2.555 0 1.115.468 2.554 1.811 2.554 1.439 0 1.812-1.367 1.812-2.554 0-1.188-.373-2.555-1.812-2.555m-2.566-3.382l.755 0 0 3.91.025 0c.108-.3.708-1.176 1.907-1.176 1.799 0 2.518 1.343 2.518 3.203 0 1.811-.839 3.201-2.518 3.201-.876 0-1.5-.336-1.907-1.115l-.025 0 0 .972-.755 0 0-8.995z" fill="#fff" fill-rule="nonzero"/>
    <rect x="140.456" y="23.519" width="0.756" height="8.995" fill="#fff" fill-rule="nonzero"/>
    <path d="M143.359 26.397l.756 0 0 6.117-.756 0 0-6.117zm.756-1.63l-.756 0 0-1.008.756 0 0 1.008zM150.245 27.213c-.408-.18-.899-.312-1.307-.312-1.475 0-2.302 1.068-2.302 2.556 0 1.39.838 2.553 2.218 2.553.479 0 .923-.108 1.379-.276l.073.709c-.516.18-.997.215-1.573.215-1.967 0-2.925-1.499-2.925-3.201 0-1.884 1.21-3.203 3.022-3.203.731 0 1.259.167 1.476.24l-.061.719zM14.86 38.761l-.552 0-1.511-1.727.947 0 1.116 1.727zm.708 3.67l-.216 0c-1.308 0-2.867.133-2.867 1.476 0 .803.576 1.103 1.271 1.103 1.775 0 1.812-1.547 1.812-2.206l0-.373zm.071 2.1l-.024 0c-.336.731-1.187 1.126-1.942 1.126-1.74 0-2.016-1.174-2.016-1.726 0-2.051 2.183-2.147 3.766-2.147l.145 0 0-.312c0-1.043-.373-1.57-1.392-1.57-.635 0-1.235.143-1.799.503l0-.732c.468-.228 1.259-.42 1.799-.42 1.512 0 2.147.684 2.147 2.279l0 2.699c0 .491 0 .863.06 1.283l-.744 0 0-.983z" fill="#fff" fill-rule="nonzero"/>
    <rect x="21.225" y="36.519" width="0.756" height="8.995" fill="#fff" fill-rule="nonzero"/>
    <path d="M27.572 42.431l-.216 0c-1.307 0-2.867.133-2.867 1.477 0 .802.576 1.102 1.272 1.102 1.775 0 1.811-1.547 1.811-2.206l0-.373zm.072 2.1l-.024 0c-.336.731-1.188 1.127-1.943 1.127-1.739 0-2.015-1.175-2.015-1.727 0-2.051 2.183-2.146 3.766-2.146l.144 0 0-.313c0-1.043-.372-1.57-1.391-1.57-.636 0-1.235.143-1.799.503l0-.732c.467-.228 1.259-.42 1.799-.42 1.511 0 2.146.684 2.146 2.28l0 2.698c0 .491 0 .863.06 1.283l-.743 0 0-.983zM35.725 39.902c-1.343 0-1.811 1.438-1.811 2.555 0 1.115.468 2.553 1.811 2.553 1.439 0 1.811-1.367 1.811-2.553 0-1.188-.372-2.555-1.811-2.555m-2.566-.504l.755 0-.048 1.115.024 0c.192-.336.66-1.259 1.955-1.259 1.799 0 2.519 1.343 2.519 3.203 0 1.81-.84 3.201-2.519 3.201-.959 0-1.535-.396-1.907-1.188l-.024 0 0 3.563-.755 0 0-8.635zM40.142 40.765c0-.672 0-.924-.048-1.367l.756 0 0 1.175.024 0c.276-.684.791-1.32 1.571-1.32.18 0 .396.036.528.073l0 .791c-.156-.047-.36-.072-.552-.072-1.199 0-1.523 1.343-1.523 2.447l0 3.022-.756 0 0-4.749zM46.551 45.01c1.319 0 2.027-1.14 2.027-2.553 0-1.417-.708-2.555-2.027-2.555-1.319 0-2.027 1.138-2.027 2.555 0 1.413.708 2.553 2.027 2.553m0-5.757c1.979 0 2.854 1.535 2.854 3.204 0 1.666-.875 3.2-2.854 3.2-1.979 0-2.854-1.535-2.854-3.2 0-1.669.875-3.204 2.854-3.204M53.571 39.902c-1.343 0-1.811 1.438-1.811 2.555 0 1.115.468 2.553 1.811 2.553 1.439 0 1.811-1.367 1.811-2.553 0-1.188-.372-2.555-1.811-2.555m-2.566-.504l.755 0-.048 1.115.024 0c.192-.336.66-1.259 1.955-1.259 1.799 0 2.519 1.343 2.519 3.203 0 1.81-.84 3.201-2.519 3.201-.959 0-1.535-.396-1.907-1.188l-.024 0 0 3.563-.755 0 0-8.635zM57.988 40.765c0-.672 0-.924-.048-1.367l.756 0 0 1.175.024 0c.276-.684.791-1.32 1.571-1.32.18 0 .396.036.528.073l0 .791c-.156-.047-.36-.072-.552-.072-1.199 0-1.523 1.343-1.523 2.447l0 3.022-.756 0 0-4.749zM62.224 39.398l.756 0 0 6.116-.756 0 0-6.116zm.755-1.631l-.756 0 0-1.008.756 0 0 1.008zM67.598 37.035l.948 0-1.511 1.727-.552 0 1.115-1.727zm1.259 4.989c0-1.067-.431-2.122-1.559-2.122-1.115 0-1.799 1.115-1.799 2.122l3.358 0zm.372 3.298c-.527.217-1.211.336-1.775.336-2.027 0-2.782-1.367-2.782-3.201 0-1.871 1.031-3.203 2.578-3.203 1.727 0 2.435 1.391 2.435 3.035l0 .383-4.186 0c0 1.295.696 2.339 2.015 2.339.552 0 1.355-.228 1.715-.456l0 .767zM74.007 40.046l-1.391 0 0 3.958c0 .551.204 1.007.815 1.007.288 0 .48-.06.696-.144l.048.623c-.18.073-.552.168-.923.168-1.344 0-1.391-.924-1.391-2.039l0-3.573-1.2 0 0-.647 1.2 0 0-1.476.755-.264 0 1.74 1.391 0 0 .647zM78.075 37.035l.948 0-1.511 1.727-.552 0 1.115-1.727zm1.259 4.989c0-1.067-.431-2.122-1.559-2.122-1.115 0-1.799 1.115-1.799 2.122l3.358 0zm.372 3.298c-.527.217-1.211.336-1.775.336-2.026 0-2.782-1.367-2.782-3.201 0-1.871 1.031-3.203 2.578-3.203 1.727 0 2.435 1.391 2.435 3.035l0 .383-4.186 0c0 1.295.696 2.339 2.015 2.339.552 0 1.355-.228 1.715-.456l0 .767zM85.221 40.046l-1.235 0 0-.647 1.235 0 0-.445c0-1.283.048-2.579 1.619-2.579.239 0 .564.037.708.121l-.049.659c-.156-.084-.383-.131-.599-.131-1.032 0-.924 1.115-.924 1.846l0 .529 1.38 0 0 .647-1.38 0 0 5.469-.755 0 0-5.469zM91.327 45.01c1.319 0 2.027-1.14 2.027-2.553 0-1.417-.708-2.555-2.027-2.555-1.319 0-2.027 1.138-2.027 2.555 0 1.413.708 2.553 2.027 2.553m0-5.757c1.979 0 2.854 1.535 2.854 3.204 0 1.666-.875 3.2-2.854 3.2-1.979 0-2.854-1.535-2.854-3.2 0-1.669.875-3.204 2.854-3.204M95.852 40.838c0-.469 0-.948-.048-1.439l.732 0 0 1.09.024 0c.251-.551.708-1.235 1.979-1.235 1.51 0 2.086 1.008 2.086 2.352l0 3.909-.755 0 0-3.718c0-1.151-.408-1.895-1.452-1.895-1.379 0-1.81 1.211-1.81 2.231l0 3.382-.756 0 0-4.677zM106.747 40.213c-.408-.18-.9-.311-1.308-.311-1.475 0-2.302 1.067-2.302 2.555 0 1.391.839 2.554 2.218 2.554.48 0 .923-.109 1.38-.277l.072.709c-.516.18-.996.215-1.572.215-1.967 0-2.925-1.499-2.925-3.201 0-1.884 1.21-3.203 3.021-3.203.732 0 1.26.168 1.476.24l-.06.719zM108.332 39.398l.756 0 0 6.116-.756 0 0-6.116zm.756-1.631l-.756 0 0-1.008.756 0 0 1.008zM113.971 38.761l-.553 0-1.51-1.727.948 0 1.115 1.727zm.995 3.263c0-1.068-.432-2.122-1.559-2.122-1.116 0-1.799 1.115-1.799 2.122l3.358 0zm.373 3.298c-.529.216-1.213.335-1.776.335-2.027 0-2.782-1.367-2.782-3.201 0-1.871 1.03-3.203 2.578-3.203 1.727 0 2.434 1.392 2.434 3.035l0 .383-4.185 0c0 1.295.695 2.339 2.014 2.339.552 0 1.356-.228 1.717-.456l0 .768zM117.475 40.765c0-.672 0-.924-.047-1.367l.756 0 0 1.175.023 0c.276-.684.791-1.32 1.571-1.32.18 0 .396.036.528.073l0 .791c-.155-.047-.36-.072-.552-.072-1.199 0-1.523 1.343-1.523 2.447l0 3.022-.756 0 0-4.749zM125.227 42.024c0-1.067-.432-2.122-1.559-2.122-1.115 0-1.798 1.115-1.798 2.122l3.357 0zm.373 3.298c-.528.217-1.212.336-1.775.336-2.028 0-2.784-1.367-2.784-3.201 0-1.871 1.032-3.204 2.58-3.204 1.727 0 2.434 1.392 2.434 3.036l0 .382-4.185 0c0 1.295.695 2.339 2.014 2.339.552 0 1.356-.227 1.716-.456l0 .768zM9.651 5.161c0 2.479-2.01 4.489-4.49 4.489-2.482 0-4.49-2.01-4.49-4.489 0-2.481 2.008-4.493 4.49-4.493 2.48 0 4.49 2.012 4.49 4.493" fill="#fff" fill-rule="nonzero"/>
    <path d="M5.159,2.466c1.504,0 2.699,1.193 2.699,2.695c0,1.502 -1.195,2.696 -2.699,2.696c-1.5,0 -2.693,-1.194 -2.693,-2.696c0,-1.502 1.193,-2.695 2.693,-2.695m0,6.779c2.274,0 4.084,-1.811 4.084,-4.084c0,-2.271 -1.81,-4.084 -4.084,-4.084c-2.271,0 -4.082,1.813 -4.082,4.084c0,2.273 1.811,4.084 4.082,4.084m0,-9.245c2.851,0 5.161,2.31 5.161,5.161c0,2.849 -2.31,5.159 -5.161,5.159c-2.85,0 -5.159,-2.31 -5.159,-5.159c0,-2.851 2.309,-5.161 5.159,-5.161" fill="#e3000f" fill-rule="nonzero"/>
    <path d="M7.03,53.426c0,1.034 -0.837,1.872 -1.871,1.872c-1.034,0 -1.872,-0.838 -1.872,-1.872c0,-1.032 0.838,-1.87 1.872,-1.87c1.034,0 1.871,0.838 1.871,1.87" fill="#fff" fill-rule="nonzero"/>
    <path d="M7.03,53.426c0,1.034 -0.837,1.872 -1.871,1.872c-1.034,0 -1.872,-0.838 -1.872,-1.872c0,-1.032 0.838,-1.87 1.872,-1.87c1.034,0 1.871,0.838 1.871,1.87Z" fill="none" stroke="#1a1a18" stroke-width="0.6px"/>
    <path d="M159.565,53.426c0,1.034 -0.838,1.872 -1.873,1.872c-1.033,0 -1.871,-0.838 -1.871,-1.872c0,-1.032 0.838,-1.87 1.871,-1.87c1.035,0 1.873,0.838 1.873,1.87" fill="#fff" fill-rule="nonzero"/>
    <path d="M159.565,53.426c0,1.034 -0.838,1.872 -1.873,1.872c-1.033,0 -1.871,-0.838 -1.871,-1.872c0,-1.032 0.838,-1.87 1.871,-1.87c1.035,0 1.873,0.838 1.873,1.87Z" fill="none" stroke="#1a1a18" stroke-width="0.6px"/>
    <path d="M122.003,16.273c0,1.033 -0.837,1.872 -1.871,1.872c-1.034,0 -1.872,-0.839 -1.872,-1.872c0,-1.032 0.838,-1.869 1.872,-1.869c1.034,0 1.871,0.837 1.871,1.869" fill="#fff" fill-rule="nonzero"/>
    <path d="M122.003,16.273c0,1.033 -0.837,1.872 -1.871,1.872c-1.034,0 -1.872,-0.839 -1.872,-1.872c0,-1.032 0.838,-1.869 1.872,-1.869c1.034,0 1.871,0.837 1.871,1.869Z" fill="none" stroke="#1a1a18" stroke-width="0.6px"/>
    <path d="M159.565,16.273c0,1.033 -0.838,1.872 -1.873,1.872c-1.033,0 -1.871,-0.839 -1.871,-1.872c0,-1.032 0.838,-1.869 1.871,-1.869c1.035,0 1.873,0.837 1.873,1.869" fill="#fff" fill-rule="nonzero"/>
    <path d="M159.565,16.273c0,1.033 -0.838,1.872 -1.873,1.872c-1.033,0 -1.871,-0.839 -1.871,-1.872c0,-1.032 0.838,-1.869 1.871,-1.869c1.035,0 1.873,0.837 1.873,1.869Z" fill="none" stroke="#1a1a18" stroke-width="0.6px"/>
    <path d="M122.003,5.152c0,1.034 -0.838,1.872 -1.871,1.872c-1.035,0 -1.872,-0.838 -1.872,-1.872c0,-1.033 0.837,-1.87 1.872,-1.87c1.033,0 1.871,0.837 1.871,1.87" fill="#fff" fill-rule="nonzero"/>
    <path d="M122.003,5.152c0,1.034 -0.838,1.872 -1.871,1.872c-1.035,0 -1.872,-0.838 -1.872,-1.872c0,-1.033 0.837,-1.87 1.872,-1.87c1.033,0 1.871,0.837 1.871,1.87Z" fill="none" stroke="#1a1a18" stroke-width="0.6px"/>
  </g>
</svg>
