<?xml version="1.0" standalone="no"?>
<!DOCTYPE svg PUBLIC "-//W3C//DTD SVG 20010904//EN"
 "http://www.w3.org/TR/2001/REC-SVG-20010904/DTD/svg10.dtd">
<svg version="1.0" xmlns="http://www.w3.org/2000/svg"
 width="286.000000pt" height="286.000000pt" viewBox="0 0 286.000000 286.000000"
 preserveAspectRatio="xMidYMid meet">
<metadata>
Created by potrace 1.11, written by Peter Selinger 2001-2013
</metadata>
<g transform="translate(0.000000,286.000000) scale(0.100000,-0.100000)"
fill="#000000" stroke="none">
<path d="M1270 2584 c-212 -32 -376 -95 -537 -206 -84 -58 -232 -208 -288
-293 -256 -387 -259 -879 -8 -1258 63 -95 207 -243 296 -305 407 -280 928
-281 1332 -1 91 63 235 210 298 306 251 379 248 871 -8 1258 -56 85 -204 235
-290 294 -146 101 -337 176 -509 200 -73 10 -231 13 -286 5z m365 -263 c171
-45 349 -157 463 -292 74 -88 154 -241 184 -354 31 -115 30 -336 0 -450 -85
-311 -314 -545 -629 -642 -80 -25 -102 -27 -253 -27 -151 0 -173 2 -253 27
-255 79 -454 245 -564 472 -68 143 -86 224 -86 395 0 176 18 257 93 405 126
251 351 421 636 480 98 20 305 13 409 -14z"/>
<path d="M1324 2038 c-335 -35 -572 -355 -514 -695 25 -150 131 -309 264 -395
143 -92 346 -118 512 -64 428 138 555 670 235 986 -135 135 -297 189 -497 168z"/>
</g>
</svg>
